<svg width="176" height="115" viewBox="0 0 176 115" fill="none" xmlns="http://www.w3.org/2000/svg">
<path d="M97.1882 81.5124C106.592 81.5124 113.408 77.0561 117.635 68.1433C119.361 64.1629 120.353 59.7065 120.612 54.7743L97.1882 54.7743L97.1882 -6.88994e-06L176 0L176 52.3081C176 82.9402 161.549 102.41 132.647 110.717C122.725 113.572 110.906 115 97.1882 115L97.1882 81.5124ZM2.92758e-06 81.5124C9.92157 81.5124 16.7373 77.056 20.4471 68.1433C22.1726 64.1629 23.1216 59.7065 23.2941 54.7743L5.2651e-06 54.7742L1.00536e-05 -1.53864e-05L78.6824 -8.50778e-06L78.6824 52.3081C78.6824 82.9402 64.2745 102.41 35.4588 110.717C25.5372 113.572 13.7177 115 0 115L2.92758e-06 81.5124Z" fill="white"/>
</svg>
