<svg width="176" height="115" viewBox="0 0 176 115" fill="none" xmlns="http://www.w3.org/2000/svg">
<path d="M78.8118 33.4876C69.4078 33.4876 62.5922 37.9439 58.3647 46.8567C56.6392 50.8371 55.6471 55.2935 55.3882 60.2257H78.8118V115H0V62.6919C0 32.0598 14.451 12.5903 43.3529 4.2833C53.2745 1.42777 65.0941 0 78.8118 0V33.4876ZM176 33.4876C166.078 33.4876 159.263 37.9439 155.553 46.8567C153.827 50.8371 152.878 55.2935 152.706 60.2257H176V115H97.3176V62.6919C97.3176 32.0598 111.725 12.5903 140.541 4.2833C150.463 1.42777 162.282 0 176 0V33.4876Z" fill="white"/>
</svg>
