<svg width="52" height="74" viewBox="0 0 52 74" fill="none" xmlns="http://www.w3.org/2000/svg">
<path d="M38.9645 0.00383738C40.1814 0.330693 41.4366 0.5518 42.6074 0.999785C48.1523 3.13012 51.7511 8.42711 51.7549 14.3701C51.7587 25.3794 51.7683 36.3887 51.7511 47.396C51.7415 53.5352 48.9469 57.9919 43.5268 60.8183C43.4423 60.8625 43.3617 60.9106 43.2043 60.999C43.3943 61.2028 43.5613 61.3932 43.7398 61.572C46.1082 63.9484 48.492 66.3094 50.8451 68.7013C52.4958 70.3778 51.8336 73.0119 49.6206 73.6118C48.4825 73.9194 47.5151 73.558 46.686 72.7254C43.3559 69.3781 40.0105 66.046 36.6901 62.6909C36.3216 62.3199 35.9607 62.1757 35.4406 62.1757C29.0473 62.193 22.6521 62.1911 16.2588 62.1757C15.7905 62.1757 15.4642 62.3103 15.136 62.6429C11.7772 66.0287 8.4126 69.4088 5.03074 72.7697C3.35325 74.4347 0.739099 73.7983 0.117236 71.5853C-0.201373 70.4471 0.144101 69.4703 0.975171 68.6417C3.31675 66.3075 5.65066 63.9638 7.98649 61.622C8.16883 61.4374 8.34544 61.247 8.55081 61.0317C7.76004 60.5587 6.97693 60.1588 6.27062 59.655C2.24003 56.7826 0.0539096 52.8699 0.032797 47.8978C-0.0171056 36.6252 0.00783442 25.3525 0.0212697 14.0798C0.0308664 7.1889 5.50866 1.0094 12.3338 0.138427C12.495 0.117278 12.6505 0.048067 12.8079 0C21.5274 0 30.245 0 38.9645 0V0.00383738ZM5.91173 26.9252C5.87142 26.9329 5.82917 26.9406 5.78887 26.9483C5.78119 27.0367 5.76586 27.1271 5.76586 27.2156C5.76586 34.0988 5.73128 40.98 5.77734 47.8632C5.80805 52.643 9.67362 56.4115 14.5007 56.4249C22.0898 56.4461 29.6807 56.4461 37.2716 56.4249C42.1909 56.4115 45.9912 52.5834 46.0046 47.6479C46.0219 40.9089 46.0084 34.1699 46.0065 27.4328C46.0065 27.2655 45.9739 27.1002 45.9393 26.7791C45.757 27.1444 45.6515 27.3578 45.544 27.5712C43.736 31.1859 41.9164 34.7948 40.1295 38.419C39.4884 39.7188 38.5173 40.3263 37.0509 40.3206C29.6999 40.2936 22.3488 40.2802 14.9997 40.3302C13.2954 40.3417 12.2359 39.6784 11.5008 38.1575C9.68319 34.3929 7.78116 30.6687 5.91365 26.9272L5.91173 26.9252ZM7.59878 17.3118C7.74081 17.6156 7.84256 17.8502 7.95772 18.079C10.5949 23.3625 13.2397 28.6422 15.8577 33.9353C16.0937 34.4122 16.3567 34.566 16.8864 34.564C22.8709 34.5429 28.8554 34.5429 34.8399 34.564C35.3869 34.566 35.6767 34.4218 35.9281 33.9142C38.5442 28.623 41.1871 23.3452 43.8223 18.0636C43.9355 17.8348 44.0315 17.5983 44.1601 17.3099H7.6007L7.59878 17.3118ZM45.4269 11.4976C44.4096 8.19062 41.0527 5.78535 37.3695 5.76997C29.7095 5.73921 22.0514 5.7469 14.3913 5.76997C12.3722 5.77574 10.5431 6.42752 8.96537 7.71764C7.74275 8.71935 6.85408 9.95372 6.29939 11.4976H45.4269Z" fill="#C61212"/>
<path d="M14.4409 44.9156C16.0378 44.9291 17.27 46.2038 17.2604 47.8285C17.2508 49.4301 15.984 50.676 14.3679 50.6702C12.7326 50.6644 11.4947 49.3839 11.5139 47.7189C11.5331 46.125 12.8114 44.9002 14.4409 44.9137V44.9156Z" fill="#C61212"/>
<path d="M40.2565 47.8343C40.245 49.4359 38.9763 50.678 37.3602 50.6722C35.7269 50.6664 34.4889 49.3821 34.51 47.717C34.5311 46.1251 35.8113 44.9022 37.4427 44.9176C39.0377 44.933 40.268 46.2077 40.2565 47.8363V47.8343Z" fill="#C61212"/>
</svg>
