<svg width="148" height="48" viewBox="0 0 148 48" fill="none" xmlns="http://www.w3.org/2000/svg">
<path fill-rule="evenodd" clip-rule="evenodd" d="M18.2734 0.208221L19.2567 3.38071C19.2951 3.50487 19.4055 3.58894 19.53 3.58894H22.712C22.9905 3.58894 23.1062 3.96249 22.881 4.13407L20.3067 6.09477C20.2059 6.17151 20.1638 6.30753 20.2023 6.43169L21.1856 9.60417C21.2716 9.8818 20.9685 10.1127 20.7432 9.94108L18.169 7.98038C18.0682 7.90364 17.9318 7.90364 17.831 7.98038L15.2568 9.94108C15.0315 10.1127 14.7284 9.8818 14.8144 9.60417L15.7977 6.43169C15.8362 6.30753 15.794 6.17151 15.6933 6.09477L13.119 4.13407C12.8938 3.96249 13.0095 3.58894 13.288 3.58894H16.47C16.5945 3.58894 16.7049 3.50487 16.7433 3.38071L17.7266 0.208221C17.8127 -0.0694072 18.1873 -0.0694072 18.2734 0.208221Z" fill="#C61212"/>
<path d="M1.435 13.5H7.14C9.12333 13.5 10.57 13.9667 11.48 14.9C12.39 15.81 12.845 17.2217 12.845 19.135V20.64C12.845 23.1833 12.005 24.7933 10.325 25.47V25.54C11.2583 25.82 11.9117 26.3917 12.285 27.255C12.6817 28.1183 12.88 29.2733 12.88 30.72V35.025C12.88 35.725 12.9033 36.2967 12.95 36.74C12.9967 37.16 13.1133 37.58 13.3 38H9.38C9.24 37.6033 9.14667 37.23 9.1 36.88C9.05333 36.53 9.03 35.9 9.03 34.99V30.51C9.03 29.39 8.84333 28.6083 8.47 28.165C8.12 27.7217 7.50167 27.5 6.615 27.5H5.285V38H1.435V13.5ZM6.685 24C7.455 24 8.02667 23.8017 8.4 23.405C8.79667 23.0083 8.995 22.3433 8.995 21.41V19.52C8.995 18.6333 8.83167 17.9917 8.505 17.595C8.20167 17.1983 7.71167 17 7.035 17H5.285V24H6.685ZM15.5512 13.5H19.4012V38H15.5512V13.5ZM27.7096 38.35C25.8663 38.35 24.4546 37.825 23.4746 36.775C22.5179 35.725 22.0396 34.2433 22.0396 32.33V19.17C22.0396 17.2567 22.5179 15.775 23.4746 14.725C24.4546 13.675 25.8663 13.15 27.7096 13.15C29.5529 13.15 30.9529 13.675 31.9096 14.725C32.8896 15.775 33.3796 17.2567 33.3796 19.17V21.76H29.7396V18.925C29.7396 17.4083 29.0979 16.65 27.8146 16.65C26.5313 16.65 25.8896 17.4083 25.8896 18.925V32.61C25.8896 34.1033 26.5313 34.85 27.8146 34.85C29.0979 34.85 29.7396 34.1033 29.7396 32.61V28.865H33.3796V32.33C33.3796 34.2433 32.8896 35.725 31.9096 36.775C30.9529 37.825 29.5529 38.35 27.7096 38.35ZM38.658 13.5H43.873L47.863 38H44.013L43.313 33.135V33.205H38.938L38.238 38H34.668L38.658 13.5ZM42.858 29.88L41.143 17.77H41.073L39.393 29.88H42.858ZM49.7309 13.5H55.4359C57.4192 13.5 58.8659 13.9667 59.7759 14.9C60.6859 15.81 61.1409 17.2217 61.1409 19.135V20.64C61.1409 23.1833 60.3009 24.7933 58.6209 25.47V25.54C59.5542 25.82 60.2076 26.3917 60.5809 27.255C60.9776 28.1183 61.1759 29.2733 61.1759 30.72V35.025C61.1759 35.725 61.1992 36.2967 61.2459 36.74C61.2926 37.16 61.4092 37.58 61.5959 38H57.6759C57.5359 37.6033 57.4426 37.23 57.3959 36.88C57.3492 36.53 57.3259 35.9 57.3259 34.99V30.51C57.3259 29.39 57.1392 28.6083 56.7659 28.165C56.4159 27.7217 55.7976 27.5 54.9109 27.5H53.5809V38H49.7309V13.5ZM54.9809 24C55.7509 24 56.3226 23.8017 56.6959 23.405C57.0926 23.0083 57.2909 22.3433 57.2909 21.41V19.52C57.2909 18.6333 57.1276 17.9917 56.8009 17.595C56.4976 17.1983 56.0076 17 55.3309 17H53.5809V24H54.9809ZM63.8471 13.5H69.7271C71.6404 13.5 73.0754 14.0133 74.0321 15.04C74.9888 16.0667 75.4671 17.5717 75.4671 19.555V31.945C75.4671 33.9283 74.9888 35.4333 74.0321 36.46C73.0754 37.4867 71.6404 38 69.7271 38H63.8471V13.5ZM69.6571 34.5C70.2871 34.5 70.7654 34.3133 71.0921 33.94C71.4421 33.5667 71.6171 32.96 71.6171 32.12V19.38C71.6171 18.54 71.4421 17.9333 71.0921 17.56C70.7654 17.1867 70.2871 17 69.6571 17H67.6971V34.5H69.6571ZM83.6309 38.35C81.7409 38.35 80.2942 37.8133 79.2909 36.74C78.2875 35.6667 77.7859 34.15 77.7859 32.19V19.31C77.7859 17.35 78.2875 15.8333 79.2909 14.76C80.2942 13.6867 81.7409 13.15 83.6309 13.15C85.5209 13.15 86.9675 13.6867 87.9709 14.76C88.9742 15.8333 89.4759 17.35 89.4759 19.31V32.19C89.4759 34.15 88.9742 35.6667 87.9709 36.74C86.9675 37.8133 85.5209 38.35 83.6309 38.35ZM83.6309 34.85C84.9609 34.85 85.6259 34.045 85.6259 32.435V19.065C85.6259 17.455 84.9609 16.65 83.6309 16.65C82.3009 16.65 81.6359 17.455 81.6359 19.065V32.435C81.6359 34.045 82.3009 34.85 83.6309 34.85ZM96.67 13.5H100.555L103.075 32.505H103.145L105.665 13.5H109.2L105.49 38H100.38L96.67 13.5ZM113.033 13.5H118.248L122.238 38H118.388L117.688 33.135V33.205H113.313L112.613 38H109.043L113.033 13.5ZM117.233 29.88L115.518 17.77H115.448L113.768 29.88H117.233ZM124.106 13.5H127.956V34.5H134.291V38H124.106V13.5ZM136.137 13.5H146.637V17H139.987V23.475H145.272V26.975H139.987V34.5H146.637V38H136.137V13.5Z" fill="#C61212"/>
</svg>
