<svg width="161" height="154" viewBox="0 0 161 154" fill="none" xmlns="http://www.w3.org/2000/svg">
<path d="M75.7447 3.63526C77.2415 -0.971288 83.7585 -0.971297 85.2553 3.63526L100.819 51.534C101.488 53.5941 103.408 54.9889 105.574 54.9889H155.937C160.781 54.9889 162.795 61.187 158.876 64.034L118.131 93.637C116.379 94.9102 115.646 97.167 116.315 99.2272L131.878 147.126C133.375 151.732 128.103 155.563 124.184 152.716L83.4389 123.113C81.6865 121.84 79.3135 121.84 77.5611 123.113L36.816 152.716C32.8974 155.563 27.625 151.732 29.1218 147.126L44.685 99.2272C45.3544 97.1671 44.6211 94.9102 42.8687 93.637L2.1236 64.034C-1.79497 61.187 0.218902 54.9889 5.06252 54.9889H55.4262C57.5923 54.9889 59.5121 53.5941 60.1815 51.534L75.7447 3.63526Z" fill="#C61212"/>
</svg>
