<svg width="97" height="98" viewBox="0 0 97 98" fill="none" xmlns="http://www.w3.org/2000/svg">
<path d="M96.0217 67.1653C98.0621 69.2347 96.2625 72.7061 93.3954 72.2313L63.1371 67.2205C61.8549 67.0082 60.5818 67.6456 59.9836 68.7995L45.8677 96.0283C44.5302 98.6084 40.6725 97.9695 40.2381 95.096L35.6533 64.7703C35.4591 63.4852 34.4594 62.4714 33.1772 62.2591L2.91894 57.2482C0.0518147 56.7734 -0.5327 52.9071 2.06593 51.606L29.4906 37.8745C30.6528 37.2926 31.3081 36.0286 31.1138 34.7435L26.5291 4.41781C26.0947 1.54429 29.5911 -0.206367 31.6316 1.86301L53.1657 23.7022C54.0782 24.6277 55.4829 24.8603 56.645 24.2784L84.0697 10.5469C86.6684 9.24577 89.4138 12.0301 88.0762 14.6102L73.9604 41.839C73.3622 42.9929 73.575 44.4007 74.4875 45.3261L96.0217 67.1653Z" fill="#C61212"/>
</svg>
