<svg width="64" height="65" viewBox="0 0 64 65" fill="none" xmlns="http://www.w3.org/2000/svg">
<path d="M56.0356 9.21098C58.7202 8.09802 61.2606 11.0706 59.7429 13.549L50.3928 28.8175C49.7141 29.9258 49.8262 31.3452 50.6706 32.3332L62.3024 45.9439C64.1905 48.1532 62.1484 51.4879 59.3223 50.8103L41.9118 46.636C40.6479 46.333 39.3327 46.8783 38.654 47.9866L29.3038 63.2551C27.7861 65.7335 23.9837 64.8218 23.7548 61.9247L22.3446 44.0764C22.2422 42.7807 21.3172 41.6983 20.0533 41.3953L2.6428 37.2211C-0.183281 36.5435 -0.491257 32.6454 2.19335 31.5324L18.7324 24.6758C19.933 24.1781 20.6765 22.9639 20.5741 21.6683L19.164 3.81993C18.9351 0.922793 22.5472 -0.574681 24.4353 1.63461L36.0671 15.2453C36.9115 16.2334 38.296 16.5653 39.4966 16.0676L56.0356 9.21098Z" fill="#C61212"/>
</svg>
