<svg width="15" height="15" viewBox="0 0 15 15" fill="none" xmlns="http://www.w3.org/2000/svg">
<path d="M8.16562 0.506035C7.95611 -0.168679 7.04389 -0.168678 6.83438 0.506036L5.54367 4.66273C5.44997 4.96447 5.18125 5.16876 4.87805 5.16876H0.701212C0.0232283 5.16876 -0.258661 6.07658 0.28984 6.49358L3.66897 9.06256C3.91427 9.24904 4.01691 9.5796 3.92321 9.88134L2.6325 14.038C2.42299 14.7127 3.16099 15.2738 3.70949 14.8568L7.08862 12.2878C7.33392 12.1014 7.66608 12.1014 7.91137 12.2878L11.2905 14.8568C11.839 15.2738 12.577 14.7127 12.3675 14.038L11.0768 9.88134C10.9831 9.5796 11.0857 9.24904 11.331 9.06256L14.7102 6.49358C15.2587 6.07658 14.9768 5.16876 14.2988 5.16876H10.1219C9.81875 5.16876 9.55003 4.96447 9.45633 4.66273L8.16562 0.506035Z" fill="#C61212"/>
</svg>
