<svg width="182" height="225" viewBox="0 0 182 225" fill="none" xmlns="http://www.w3.org/2000/svg">
<path d="M48.2572 5.91707C49.0585 0.640578 55.8334 -1.04213 59.0103 3.24629L100.382 59.0918C101.721 60.8997 103.96 61.8063 106.18 61.4402L174.754 50.1311C180.02 49.2627 183.714 55.186 180.617 59.5326L140.289 116.137C138.984 117.969 138.813 120.378 139.847 122.376L171.793 184.1C174.247 188.839 169.755 194.183 164.664 192.581L98.3683 171.718C96.2221 171.043 93.8784 171.625 92.2976 173.226L43.4671 222.682C39.7174 226.48 33.2474 223.859 33.1978 218.523L32.5526 149.025C32.5317 146.775 31.2539 144.726 29.2427 143.717L-32.8825 112.56C-37.6531 110.167 -37.1599 103.204 -32.0996 101.508L33.7972 79.4179C35.9305 78.7028 37.4844 76.8543 37.8222 74.6299L48.2572 5.91707Z" fill="#C61212"/>
</svg>
