<svg width="64" height="65" viewBox="0 0 64 65" fill="none" xmlns="http://www.w3.org/2000/svg">
<path d="M56.0361 9.21098C58.7207 8.09802 61.2611 11.0706 59.7434 13.549L50.3933 28.8175C49.7145 29.9258 49.8267 31.3452 50.6711 32.3332L62.3029 45.9439C64.191 48.1532 62.1489 51.4879 59.3228 50.8103L41.9123 46.636C40.6484 46.333 39.3332 46.8783 38.6544 47.9866L29.3043 63.2551C27.7866 65.7335 23.9841 64.8218 23.7552 61.9247L22.3451 44.0764C22.2427 42.7807 21.3177 41.6983 20.0538 41.3953L2.64329 37.2211C-0.182793 36.5435 -0.490769 32.6454 2.19384 31.5324L18.7328 24.6758C19.9334 24.1781 20.677 22.9639 20.5746 21.6683L19.1645 3.81993C18.9356 0.922793 22.5477 -0.574681 24.4358 1.63461L36.0676 15.2453C36.912 16.2334 38.2965 16.5653 39.4971 16.0676L56.0361 9.21098Z" fill="#C61212"/>
</svg>
