<svg width="84" height="88" viewBox="0 0 84 88" fill="none" xmlns="http://www.w3.org/2000/svg">
<path d="M27.3008 5.56984C27.7129 0.248777 34.3461 -1.92631 37.8291 2.11751L50.8171 17.197C52.2855 18.9018 54.5841 19.6418 56.7713 19.1139L76.1174 14.4438C81.3054 13.1915 85.4238 18.8279 82.6541 23.39L72.3262 40.4022C71.1586 42.3254 71.1651 44.7403 72.3431 46.6572L82.7629 63.6133C85.5571 68.1604 81.4692 73.819 76.2745 72.5947L56.9034 68.0293C54.7135 67.5131 52.4189 68.2656 50.9598 69.9783L38.0534 85.1278C34.5924 89.1904 27.9475 87.0512 27.5067 81.7324L25.8626 61.8986C25.6768 59.6564 24.2521 57.7066 22.1723 56.8481L3.77601 49.2549C-1.15726 47.2187 -1.17613 40.238 3.74607 38.1751L22.1011 30.4826C24.1762 29.6129 25.5903 27.6554 25.764 25.4122L27.3008 5.56984Z" fill="#C61212"/>
</svg>
