<svg width="94" height="97" viewBox="0 0 94 97" fill="none" xmlns="http://www.w3.org/2000/svg">
<path d="M53.644 1.67758C55.3012 -0.414027 58.6595 0.536635 58.9745 3.18648L62.3911 31.9312C62.5239 33.0483 63.2705 33.9972 64.325 34.3892L91.4585 44.474C93.9598 45.4037 94.0935 48.8915 91.6706 50.0099L65.3886 62.1418C64.3672 62.6133 63.6954 63.6166 63.6485 64.7406L62.442 93.6625C62.3308 96.3287 59.055 97.5336 57.2426 95.575L37.5828 74.3282C36.8188 73.5025 35.657 73.1736 34.5735 73.4764L6.69434 81.2663C4.12429 81.9844 1.96607 79.2413 3.26881 76.9124L17.4005 51.6492C17.9497 50.6674 17.9034 49.4608 17.2807 48.5239L1.25691 24.4164C-0.22025 22.1941 1.72168 19.2938 4.33916 19.8131L32.7328 25.4464C33.8363 25.6653 34.9695 25.2485 35.6681 24.3667L53.644 1.67758Z" fill="#C61212"/>
</svg>
