<svg width="224" height="221" viewBox="0 0 224 221" fill="none" xmlns="http://www.w3.org/2000/svg">
<path d="M158.751 1.95897C162.944 -1.34301 169.038 2.06211 168.423 7.3636L160.421 76.402C160.162 78.637 161.175 80.8291 163.045 82.08L220.813 120.722C225.249 123.689 223.894 130.537 218.662 131.591L150.53 145.314C148.324 145.758 146.552 147.399 145.94 149.564L127.041 216.446C125.59 221.582 118.658 222.409 116.039 217.759L81.9338 157.202C80.8297 155.241 78.7216 154.063 76.4734 154.151L7.02494 156.844C1.69195 157.051 -1.23665 150.714 2.37666 146.786L49.4306 95.6368C50.9539 93.981 51.4227 91.612 50.6451 89.5008L26.6228 24.2837C24.7781 19.2756 29.8997 14.5322 34.7518 16.7549L97.9383 45.6998C99.9838 46.6369 102.382 46.3508 104.149 44.9587L158.751 1.95897Z" fill="#C61212"/>
</svg>
