<svg width="154" height="151" viewBox="0 0 154 151" fill="none" xmlns="http://www.w3.org/2000/svg">
<path d="M106.706 1.73936C110.899 -1.56262 116.993 1.84252 116.378 7.14402L111.338 50.6277C111.079 52.8626 112.092 55.0547 113.962 56.3056L150.347 80.644C154.783 83.6114 153.428 90.4592 148.196 91.5131L105.283 100.157C103.077 100.601 101.306 102.242 100.694 104.407L88.7902 146.532C87.3389 151.668 80.4073 152.495 77.7884 147.845L56.3071 109.703C55.203 107.743 53.0949 106.565 50.8467 106.652L7.10473 108.348C1.77174 108.555 -1.15681 102.219 2.45649 98.2908L32.0933 66.0745C33.6165 64.4186 34.0854 62.0497 33.3077 59.9384L18.1774 18.8617C16.3327 13.8536 21.4543 9.1102 26.3064 11.3329L66.1042 29.5638C68.1497 30.5008 70.5476 30.2147 72.3152 28.8226L106.706 1.73936Z" fill="#C61212"/>
</svg>
