<svg width="69" height="67" viewBox="0 0 69 67" fill="none" xmlns="http://www.w3.org/2000/svg">
<path d="M65.6185 24.4519C68.5207 24.604 69.5327 28.381 67.0954 29.9638L50.844 40.5176C49.754 41.2254 49.2438 42.5547 49.5801 43.8101L54.5954 62.5274C55.3476 65.3345 52.0682 67.4642 49.8097 65.6353L34.7505 53.4406C33.7404 52.6226 32.3186 52.5481 31.2286 53.256L14.9772 63.8098C12.5399 65.3926 9.50105 62.9318 10.5425 60.2187L17.4868 42.1281C17.9526 40.9148 17.5841 39.5395 16.5741 38.7216L1.51483 26.5269C-0.743686 24.698 0.657619 21.0475 3.55981 21.1996L22.9108 22.2137C24.2087 22.2817 25.4028 21.5063 25.8686 20.2929L32.8129 2.20237C33.8544 -0.510776 37.7592 -0.306124 38.5114 2.50102L43.5267 21.2183C43.8631 22.4737 44.9696 23.3697 46.2675 23.4378L65.6185 24.4519Z" fill="#C61212"/>
</svg>
