<svg width="109" height="108" viewBox="0 0 109 108" fill="none" xmlns="http://www.w3.org/2000/svg">
<path d="M107.174 59.2325C109.693 60.6809 108.887 64.5072 105.998 64.8164L71.1986 68.5403C69.9063 68.6786 68.85 69.6333 68.5822 70.9051L61.3703 105.152C60.7715 107.996 56.8834 108.412 55.6964 105.759L41.4012 73.8138C40.8703 72.6274 39.636 71.9179 38.3437 72.0562L3.54456 75.7801C0.654886 76.0893 -0.942269 72.5201 1.21376 70.5715L27.178 47.1044C28.1422 46.2329 28.4356 44.8397 27.9047 43.6533L13.6096 11.7082C12.4225 9.05548 15.3234 6.43356 17.843 7.8819L48.1849 25.3236C49.3117 25.9713 50.7274 25.8198 51.6916 24.9483L77.6558 1.48123C79.8118 -0.467445 83.2019 1.48128 82.603 4.32508L75.3911 38.5718C75.1233 39.8435 75.7049 41.1431 76.8317 41.7908L107.174 59.2325Z" fill="#C61212"/>
</svg>
