<svg width="69" height="69" viewBox="0 0 69 69" fill="none" xmlns="http://www.w3.org/2000/svg">
<path fill-rule="evenodd" clip-rule="evenodd" d="M15.2497 15.25C14.68 15.2501 14.1288 15.4523 13.6942 15.8206C13.2597 16.189 12.9698 16.6995 12.8763 17.2615L10.4701 31.699C10.4128 32.0436 10.4312 32.3966 10.5241 32.7334C10.617 33.0701 10.7821 33.3827 11.008 33.6492C11.2338 33.9157 11.515 34.1299 11.8319 34.2768C12.1489 34.4238 12.4941 34.4999 12.8434 34.5H15.5974L11.6826 55.7192C11.6186 56.0661 11.6316 56.4229 11.7208 56.7643C11.8099 57.1056 11.9731 57.4232 12.1986 57.6945C12.4242 57.9658 12.7066 58.1842 13.026 58.3342C13.3453 58.4842 13.6937 58.5621 14.0465 58.5625H28.484C29.046 58.5619 29.59 58.3647 30.0218 58.005C30.4536 57.6453 30.7459 57.1459 30.848 56.5933L34.9273 34.5H58.5622C63.8494 34.5 68.1872 30.1622 68.1872 24.875V17.6562C68.1871 17.0181 67.9336 16.4061 67.4823 15.9548C67.0311 15.5036 66.4191 15.2501 65.7809 15.25H15.2497ZM17.2894 20.0625H63.3747V24.875C63.3747 27.5614 61.2485 29.6875 58.5622 29.6875H32.9253C32.3633 29.6881 31.8193 29.8853 31.3875 30.245C30.9557 30.6046 30.6634 31.1041 30.5613 31.6567L26.482 53.75H16.9369L20.8517 32.5308C20.9158 32.1839 20.9027 31.827 20.8136 31.4857C20.7244 31.1443 20.5612 30.8268 20.3357 30.5555C20.1101 30.2842 19.8277 30.0658 19.5083 29.9158C19.189 29.7658 18.8406 29.6879 18.4878 29.6875H15.682L17.2894 20.0625Z" fill="#C61212"/>
<path fill-rule="evenodd" clip-rule="evenodd" d="M1.51708 1.51758C1.06594 1.96882 0.8125 2.58079 0.8125 3.21887C0.8125 3.85696 1.06594 4.46892 1.51708 4.92017L64.0796 67.4827C64.5308 67.9338 65.1428 68.1872 65.7809 68.1872C66.419 68.1872 67.0309 67.9338 67.4822 67.4827C67.9333 67.0314 68.1868 66.4195 68.1868 65.7814C68.1868 65.1433 67.9333 64.5313 67.4822 64.0801L4.91966 1.51758C4.46842 1.06643 3.85646 0.812988 3.21837 0.812988C2.58029 0.812988 1.96833 1.06643 1.51708 1.51758Z" fill="#C61212"/>
</svg>
