<svg width="22" height="22" viewBox="0 0 22 22" fill="none" xmlns="http://www.w3.org/2000/svg">
<path d="M4.4443e-05 10.9904C0.0172545 4.93638 4.94758 0.00895847 10.9972 1.20342e-05C17.0407 -0.0089344 22.0185 4.97148 21.9999 11.0089C21.9814 17.065 17.0565 21.9876 11.0041 22C4.96617 22.0117 -0.0171656 17.0258 4.4443e-05 10.9904ZM9.79048 12.5484C9.19019 11.7598 8.61194 10.9821 8.01096 10.2223C7.88017 10.0565 7.6881 9.90165 7.49191 9.83283C7.07749 9.68831 6.46481 9.92505 6.22663 10.2685C5.96985 10.6373 5.98913 11.1665 6.29684 11.5671C7.18006 12.717 8.06948 13.8615 8.9582 15.0073C9.15508 15.2613 9.42012 15.3803 9.73954 15.3844C10.1622 15.3899 10.4816 15.1821 10.7274 14.8676C11.4296 13.9681 12.1186 13.0597 12.8132 12.1541C13.7632 10.9153 14.716 9.67868 15.6612 8.43581C16.132 7.81575 16.026 7.11793 15.425 6.77659C14.9425 6.50269 14.2947 6.63276 13.947 7.08696C13.0817 8.21834 12.2226 9.35316 11.3607 10.4866C10.8424 11.1686 10.3233 11.8506 9.79185 12.5484H9.79048Z" fill="white"/>
</svg>
