<svg width="20" height="19" viewBox="0 0 20 19" fill="none" xmlns="http://www.w3.org/2000/svg">
<path d="M15.9916 0.139147H3.81744C3.73162 0.156307 3.6458 0.173986 3.55998 0.191147C1.93881 0.516142 0.79405 1.90244 0.79301 3.55498C0.79041 7.35145 0.79145 11.1479 0.79405 14.9444C0.79405 15.1565 0.804973 15.3723 0.843461 15.5809C1.13576 17.1767 2.54993 18.3607 4.17527 18.3623C7.99546 18.3665 11.8157 18.3659 15.6359 18.3623C17.0713 18.3607 18.3638 17.4341 18.833 16.0749C18.9151 15.8362 18.9567 15.584 19.0176 15.338V3.16447C19.0061 3.13119 18.9895 3.09895 18.9838 3.06515C18.7705 1.73293 18.0065 0.84322 16.7744 0.343506C16.5268 0.243147 16.2532 0.205706 15.9916 0.139147ZM9.06533 9.25463C9.06221 10.6586 7.96374 11.7563 6.56049 11.7584C5.15932 11.76 4.05929 10.6633 4.05253 9.25775C4.04577 7.85273 5.16192 6.73682 6.56621 6.74514C7.97206 6.75346 9.06845 7.85429 9.06533 9.25463ZM15.7576 9.25983C15.7482 10.6664 14.6471 11.7626 13.247 11.7579C11.8437 11.7537 10.7432 10.6524 10.7427 9.25203C10.7416 7.84649 11.8635 6.73058 13.2636 6.74514C14.6737 6.75918 15.7669 7.86157 15.7576 9.25983Z" fill="white"/>
</svg>
