<svg width="32" height="32" viewBox="0 0 32 32" fill="none" xmlns="http://www.w3.org/2000/svg">
<path d="M0 31.7546C0.269464 30.7649 0.525502 29.8233 0.783458 28.8825C1.238 27.2197 1.69829 25.5579 2.13941 23.8912C2.1816 23.733 2.16146 23.5163 2.08379 23.3734C0.574408 20.6126 -0.113156 17.6514 0.184117 14.531C0.728798 8.81756 3.56919 4.5541 8.60653 1.80096C11.2101 0.37789 14.037 -0.186928 16.9868 0.0537669C22.1286 0.472826 26.1591 2.86923 29.0301 7.14421C31.0257 10.116 31.837 13.4426 31.5445 16.9993C31.1983 21.2119 29.4089 24.7428 26.2511 27.5592C24.0034 29.5643 21.3739 30.8081 18.406 31.2933C15.0113 31.8476 11.7682 31.323 8.70051 29.7657C8.43104 29.6295 8.20569 29.6161 7.92472 29.6919C5.38927 30.3689 2.85094 31.0344 0.313575 31.7009C0.230147 31.7229 0.143842 31.7316 0.000958945 31.7555L0 31.7546ZM3.79359 28.0041C3.87701 27.985 3.91729 27.9773 3.95661 27.9667C5.43338 27.5832 6.91303 27.2073 8.38597 26.8074C8.64872 26.7355 8.84147 26.7805 9.06299 26.9119C12.17 28.7598 15.4946 29.3006 19.0015 28.4318C25.9289 26.7153 30.1406 19.8627 28.5986 12.8653C27.1832 6.44034 20.9673 1.77987 13.92 2.82704C10.9368 3.27007 8.38693 4.61355 6.33575 6.83351C3.62673 9.765 2.48942 13.246 2.88163 17.2093C3.08493 19.2662 3.79071 21.1659 4.92514 22.8968C5.06323 23.1078 5.092 23.2938 5.02391 23.5355C4.61061 25.0046 4.21073 26.4785 3.79263 28.0032L3.79359 28.0041Z" fill="white"/>
<path d="M7.83496 12.1939C7.86469 10.9051 8.36238 9.83967 9.26475 8.94498C9.57832 8.63332 9.94368 8.46551 10.3877 8.47605C10.6188 8.48181 10.8518 8.50866 11.081 8.49044C11.4579 8.46071 11.7033 8.64483 11.8386 8.95936C12.3075 10.0497 12.7716 11.1429 13.2031 12.2485C13.2703 12.4212 13.2204 12.7031 13.1168 12.8661C12.8224 13.3293 12.4858 13.7675 12.1387 14.1942C11.9191 14.4647 11.8971 14.7015 12.0764 15.0007C13.3575 17.143 15.1297 18.708 17.4599 19.6257C17.8272 19.7705 18.0228 19.7302 18.274 19.4253C18.6662 18.9497 19.0537 18.4692 19.4353 17.985C19.7067 17.6407 19.8668 17.5515 20.2543 17.7289C21.3733 18.241 22.4819 18.777 23.5828 19.3265C23.7065 19.3888 23.8225 19.5979 23.8282 19.7427C23.8743 20.9289 23.5099 21.9099 22.4522 22.586C21.1585 23.4135 19.8064 23.4759 18.3699 23.0712C14.655 22.0259 11.8999 19.6986 9.68668 16.63C8.96172 15.625 8.29717 14.5912 8.01716 13.3628C7.9299 12.9793 7.89537 12.5832 7.83688 12.1929L7.83496 12.1939Z" fill="white"/>
</svg>
