<svg width="39" height="37" viewBox="0 0 39 37" fill="none" xmlns="http://www.w3.org/2000/svg">
<path d="M28.797 1.2564C30.3783 0.137047 32.4682 1.69523 31.8468 3.53032L28.6509 12.9678C28.373 13.7884 28.6552 14.6947 29.3498 15.2126L37.3378 21.1684C38.891 22.3265 38.0549 24.7956 36.1176 24.7717L26.1545 24.6485C25.2881 24.6378 24.5133 25.1862 24.2354 26.0069L21.0395 35.4443C20.4181 37.2794 17.8115 37.2472 17.2356 35.3973L14.2739 25.8838C14.0164 25.0565 13.2554 24.4892 12.389 24.4784L2.42591 24.3553C0.488611 24.3314 -0.286251 21.8424 1.29513 20.7231L9.42783 14.9665C10.135 14.4659 10.4395 13.5668 10.1819 12.7396L7.22026 3.22602C6.64437 1.37614 8.7721 -0.129938 10.3253 1.02814L18.3133 6.98392C19.0079 7.50183 19.9571 7.51356 20.6643 7.01297L28.797 1.2564Z" fill="white"/>
</svg>
