<svg width="62" height="64" viewBox="0 0 62 64" fill="none" xmlns="http://www.w3.org/2000/svg">
<path d="M23.526 2.75238C23.6274 0.817593 26.1454 0.1429 27.2006 1.76778L37.7424 18.0007C38.2143 18.7274 39.1004 19.0675 39.9374 18.8433L58.6334 13.8337C60.5048 13.3322 61.9246 15.5185 60.7053 17.0242L48.5245 32.0663C47.9792 32.7396 47.9295 33.6875 48.4014 34.4142L58.9432 50.6471C59.9984 52.272 58.3579 54.2978 56.5491 53.6035L38.4792 46.6671C37.6703 46.3566 36.7534 46.6023 36.2081 47.2756L24.0273 62.3177C22.808 63.8234 20.3744 62.8892 20.4758 60.9544L21.4888 41.6254C21.5341 40.7601 21.0171 39.9641 20.2082 39.6536L2.13829 32.7172C0.329524 32.0228 0.465954 29.4196 2.33738 28.9181L21.0334 23.9086C21.8703 23.6843 22.4677 22.9467 22.513 22.0814L23.526 2.75238Z" fill="white"/>
</svg>
