<svg width="20" height="18" viewBox="0 0 20 18" fill="none" xmlns="http://www.w3.org/2000/svg">
<path d="M0.635239 6.21742V5.87177C0.881041 5.44151 1.06906 5.3694 1.55309 5.51843C1.69375 5.5617 1.83583 5.60112 1.94523 5.63333C1.82967 5.21653 1.67954 4.80743 1.6066 4.38438C1.42758 3.34696 1.61797 2.37491 2.22561 1.50959C2.31275 1.38556 2.46667 1.27884 2.61112 1.23317C2.88202 1.1476 3.08852 1.28845 3.27701 1.57593C3.6289 2.11195 3.95522 2.67297 4.36299 3.16235C5.79754 4.88242 7.64034 5.84389 9.84687 6.09868C9.86724 5.72755 9.85871 5.36075 9.9127 5.00357C10.0761 3.92239 10.5094 2.97198 11.2719 2.17925C12.4792 0.924056 14.4001 0.561582 15.954 1.3197C16.0667 1.37498 16.1529 1.38027 16.268 1.3221C16.9931 0.953861 17.7201 0.588984 18.4532 0.237567C18.5934 0.170265 18.772 0.120749 18.9193 0.145747C19.3218 0.214973 19.4952 0.624558 19.3067 1.02164C19.0471 1.56824 18.7772 2.10907 18.5124 2.65278C18.4859 2.70758 18.4627 2.76431 18.4234 2.85276C18.7118 2.82728 18.968 2.81382 19.2219 2.78017C19.4999 2.74315 19.7429 2.79459 19.9039 3.04169C20.0621 3.28446 20.0086 3.52531 19.8622 3.75943C19.6391 4.11517 19.4398 4.48774 19.1973 4.82858C19.0339 5.05837 19.0211 5.28239 19.059 5.54391C19.2167 6.63229 19.2219 7.72308 19.0372 8.80858C18.7393 10.5618 18.0256 12.1271 16.933 13.5159C16.2728 14.3553 15.5358 15.1115 14.6308 15.6836C13.0859 16.6609 11.3785 17.0772 9.58402 17.195C8.46726 17.2685 7.35618 17.2094 6.24984 17.0426C4.98957 16.8527 3.76009 16.5474 2.58413 16.0422C2.102 15.835 1.63407 15.5961 1.25472 15.2192C1.16852 15.1336 1.09085 15.0177 1.05817 14.9019C0.947819 14.513 1.22914 14.1659 1.65018 14.1664C2.44347 14.1668 3.23676 14.1923 4.02389 14.05C4.84181 13.902 5.5901 13.5976 6.26262 13.0602C6.20011 13.039 6.15417 13.0241 6.10823 13.0083C5.66256 12.8544 5.20885 12.7213 4.77313 12.542C3.9429 12.2006 3.18892 11.7295 2.56566 11.068C2.46336 10.9594 2.37337 10.8065 2.34732 10.6613C2.29333 10.3575 2.47993 10.1123 2.7892 10.0215C2.97533 9.96666 3.16287 9.91811 3.36226 9.86331C3.04068 9.64746 2.73568 9.46622 2.45673 9.25085C1.75484 8.70858 1.23814 8.01681 0.928875 7.176C0.813789 6.86304 0.731855 6.53759 0.634766 6.21742H0.635239Z" fill="currentColor"/>
</svg>
