<svg width="72" height="71" viewBox="0 0 72 71" fill="none" xmlns="http://www.w3.org/2000/svg">
<path d="M53.3938 67.2359C53.8835 70.1005 50.4214 71.9182 48.3414 69.8885L33.5692 55.4728C32.639 54.5651 31.2302 54.3596 30.0794 54.9637L11.8045 64.5583C9.23137 65.9092 6.43285 63.1782 7.7205 60.5729L16.8657 42.069C17.4415 40.9038 17.2017 39.5004 16.2715 38.5927L1.49924 24.177C-0.580684 22.1473 1.15183 18.6419 4.02756 19.0614L24.4519 22.041C25.7379 22.2286 26.9985 21.5668 27.5744 20.4016L36.7196 1.89769C38.0072 -0.707645 41.8765 -0.143181 42.3662 2.72144L45.8439 23.0668C46.0628 24.3479 47.0818 25.3423 48.3679 25.53L68.7922 28.5095C71.6679 28.9291 72.3268 32.7834 69.7536 34.1343L51.4787 43.7289C50.328 44.333 49.6971 45.6094 49.9161 46.8905L53.3938 67.2359Z" fill="#C61212"/>
</svg>
