<svg width="20" height="18" viewBox="0 0 20 18" fill="none" xmlns="http://www.w3.org/2000/svg">
<path fill-rule="evenodd" clip-rule="evenodd" d="M7 0C3.13425 0 0 3.13425 0 7C0 10.8657 3.13425 14 7 14C10.8657 14 14 10.8657 14 7C14 3.13425 10.8657 0 7 0ZM10.2445 4.76058C10.1395 5.86717 9.68333 8.55342 9.45175 9.793C9.35375 10.318 9.16008 10.4936 8.97342 10.5105C8.56683 10.5478 8.25825 10.2416 7.8645 9.98375C7.2485 9.58008 6.90025 9.32867 6.30233 8.93433C5.61108 8.47875 6.05908 8.2285 6.45283 7.81958C6.55608 7.71225 8.34692 6.083 8.38192 5.93542C8.386 5.91675 8.39067 5.84792 8.34925 5.81175C8.30783 5.77558 8.24775 5.78783 8.20458 5.79775C8.14275 5.81175 7.15867 6.46217 5.25175 7.749C4.97233 7.94092 4.71917 8.03425 4.49225 8.02958C4.24258 8.02433 3.76192 7.88842 3.40433 7.77175C2.96625 7.62942 2.61742 7.55358 2.64775 7.31208C2.6635 7.18608 2.83675 7.05717 3.16808 6.92533C5.20858 6.03633 6.5695 5.45008 7.25025 5.16658C9.1945 4.35808 9.59817 4.2175 9.86183 4.21283C10.192 4.20817 10.2713 4.48058 10.2445 4.76058Z" fill="#1C9DDE"/>
</svg>
