<svg width="24" height="37" viewBox="0 0 24 37" fill="none" xmlns="http://www.w3.org/2000/svg">
<path d="M9.22594 36.084C8.63369 35.7836 8.44569 35.2892 8.46355 34.6441C8.49269 33.5414 8.472 32.4377 8.472 31.2766C8.33005 31.2766 8.20691 31.2766 8.08376 31.2766C7.08728 31.2766 6.08986 31.2784 5.09338 31.2766C4.26799 31.2747 3.84213 30.8471 3.83931 30.0137C3.83555 28.7095 3.83555 27.4061 3.83931 26.1018C3.84119 25.2458 4.25766 24.8352 5.12064 24.8334C6.09362 24.8315 7.06754 24.8334 8.04052 24.8334C8.16743 24.8334 8.29432 24.8334 8.46823 24.8334C8.46823 24.2561 8.48328 23.708 8.4532 23.1627C8.4485 23.0752 8.25014 22.9659 8.12323 22.9226C6.6445 22.4197 5.28516 21.7012 4.08656 20.6945C1.89525 18.8544 0.572558 16.5114 0.151406 13.6825C-0.354354 10.282 0.402417 7.17431 2.49032 4.43486C4.24356 2.13331 6.6022 0.764999 9.42242 0.23293C12.881 -0.419678 16.065 0.295083 18.8739 2.42713C21.2448 4.22674 22.6398 6.66672 23.1644 9.58604C23.7773 12.9998 23.1099 16.1441 20.9985 18.925C19.5291 20.8603 17.5719 22.1306 15.2866 22.9028C14.9942 23.0017 14.8758 23.1251 14.8983 23.4434C14.9303 23.886 14.9059 24.3324 14.9059 24.8145C15.0535 24.8221 15.1776 24.8324 15.3016 24.8324C16.2868 24.8343 17.272 24.8324 18.2563 24.8334C19.1221 24.8352 19.5348 25.2411 19.5376 26.1018C19.5414 27.3939 19.5404 28.6859 19.5376 29.9779C19.5357 30.8632 19.1249 31.2756 18.2488 31.2766C17.2758 31.2784 16.3019 31.2766 15.3289 31.2766C15.2029 31.2766 15.076 31.2766 14.9049 31.2766V32.1072C14.9049 32.9528 14.8833 33.7994 14.9124 34.6441C14.935 35.2883 14.7451 35.7846 14.1501 36.084H9.22406H9.22594ZM17.3848 26.9805C16.2351 26.9805 15.123 26.9823 14.0109 26.9805C13.1912 26.9786 12.7606 26.5426 12.7587 25.7139C12.7569 24.6102 12.7569 23.5055 12.7587 22.4018C12.7606 21.6607 13.0436 21.3057 13.759 21.1362C18.8457 19.9317 22.0147 15.2053 21.131 10.1426C20.1834 4.71455 15.1522 1.25469 9.75803 2.30658C4.53405 3.32552 1.13285 8.7093 2.32204 13.8294C3.23109 17.7403 5.77682 20.1332 9.63958 21.1371C10.3089 21.3113 10.6144 21.6635 10.6173 22.3538C10.622 23.5046 10.6248 24.6563 10.6173 25.8071C10.6125 26.5247 10.1632 26.971 9.45063 26.9805C8.93453 26.9871 8.41841 26.9823 7.90325 26.9823C7.2734 26.9823 6.6445 26.9823 6.00901 26.9823V29.1266C7.1512 29.1266 8.26425 29.1238 9.3773 29.1276C10.1848 29.1304 10.6163 29.5626 10.6182 30.3687C10.621 31.4376 10.6182 32.5064 10.6182 33.5753C10.6182 33.6996 10.6182 33.823 10.6182 33.951H12.7587C12.7587 33.8051 12.7587 33.6789 12.7587 33.5527C12.7587 32.4951 12.7569 31.4385 12.7587 30.381C12.7606 29.5551 13.1893 29.1285 14.0222 29.1257C15.0187 29.1229 16.0152 29.1257 17.0116 29.1238C17.1348 29.1238 17.2579 29.1134 17.3839 29.1069V26.9795L17.3848 26.9805Z" fill="white"/>
<path d="M11.7109 4.36374C15.7297 4.36656 19.1318 7.69364 19.0444 11.6696C18.9438 16.2359 15.7316 19.079 11.663 19.0667C7.63004 19.0554 4.41971 16.2256 4.32853 11.6573C4.24862 7.66728 7.65824 4.35997 11.71 4.36279L11.7109 4.36374ZM16.9123 11.8014C16.9199 8.78509 14.6881 6.53156 11.6921 6.5278C8.69703 6.52403 6.46249 8.77285 6.46249 11.792C6.46249 14.6284 8.81736 16.978 11.6648 16.9827C14.5424 16.9874 16.9058 14.6548 16.9123 11.8014Z" fill="white"/>
</svg>
