<svg width="25" height="26" viewBox="0 0 30 31" fill="none" xmlns="http://www.w3.org/2000/svg">
<path d="M12.0666 1.56216C12.1784 0.599904 13.4562 0.342829 13.9314 1.187L18.3986 9.12307C18.6111 9.5006 19.0425 9.69835 19.4673 9.6129L28.3954 7.8167C29.3451 7.62564 29.9844 8.76147 29.3284 9.47426L23.1612 16.1752C22.8678 16.494 22.8131 16.9654 23.0256 17.3429L27.4928 25.279C27.968 26.1232 27.0853 27.0822 26.2047 26.6786L17.9259 22.8839C17.5321 22.7034 17.0668 22.797 16.7734 23.1158L10.6062 29.8168C9.95023 30.5296 8.76536 29.9865 8.87712 29.0242L9.92776 19.978C9.97774 19.5477 9.74494 19.1341 9.35112 18.9536L1.07235 15.1589C0.191725 14.7553 0.342096 13.4606 1.29179 13.2695L10.2199 11.4733C10.6446 11.3879 10.966 11.0387 11.016 10.6083L12.0666 1.56216Z" fill="white"/>
</svg>
