<svg width="45" height="45" viewBox="0 0 45 45" fill="none" xmlns="http://www.w3.org/2000/svg">
<path d="M22.2542 14.6962C21.9001 14.6962 21.5605 14.5555 21.31 14.3051C21.0596 14.0547 20.9189 13.7151 20.9189 13.3609V10.6263C20.9189 10.2722 21.0596 9.93252 21.31 9.68211C21.5605 9.4317 21.9001 9.29102 22.2542 9.29102C22.6084 9.29102 22.948 9.4317 23.1984 9.68211C23.4488 9.93252 23.5895 10.2722 23.5895 10.6263V13.3609C23.5895 13.7151 23.4488 14.0547 23.1984 14.3051C22.948 14.5555 22.6084 14.6962 22.2542 14.6962Z" fill="white"/>
<path d="M22.2542 35.2182C21.9001 35.2182 21.5605 35.0775 21.31 34.8271C21.0596 34.5767 20.9189 34.237 20.9189 33.8829V31.1483C20.9189 30.7941 21.0596 30.4545 21.31 30.2041C21.5605 29.9537 21.9001 29.813 22.2542 29.813C22.6084 29.813 22.948 29.9537 23.1984 30.2041C23.4488 30.4545 23.5895 30.7941 23.5895 31.1483V33.8829C23.5895 34.237 23.4488 34.5767 23.1984 34.8271C22.948 35.0775 22.6084 35.2182 22.2542 35.2182Z" fill="white"/>
<path d="M18.2111 17.5996C18.2788 16.899 18.7007 16.2198 19.3964 15.6919C20.1731 15.1013 21.2146 14.7417 22.3282 14.6789C22.5632 14.6658 22.7987 14.6658 23.0337 14.6789C23.072 14.6816 24.2252 14.7701 25.2387 15.4155L27.1526 13.5016C25.4167 12.1664 23.3404 12.0226 23.1859 12.0137C22.8512 11.9948 22.5156 11.9948 22.1809 12.0137C20.5399 12.1054 18.9763 12.6573 17.7812 13.5671C16.4851 14.5525 15.6942 15.894 15.5557 17.3446C15.436 18.5886 15.7952 19.8023 16.5941 20.8545C17.0597 21.4597 17.63 21.9764 18.2779 22.3803L20.243 20.4152C18.8917 19.7917 18.1043 18.715 18.2111 17.5996Z" fill="white"/>
<path d="M25.7031 25.1595C26.0147 25.5342 26.3708 26.1422 26.2978 26.91C26.2306 27.6101 25.8082 28.2876 25.113 28.8177C24.3358 29.4083 23.2943 29.7679 22.1798 29.8302C21.9451 29.8432 21.7099 29.8432 21.4752 29.8302C21.4307 29.8271 19.9975 29.7159 18.9222 28.8439L17.0283 30.7378C18.8171 32.3245 21.153 32.4865 21.3221 32.4963C21.4912 32.5061 21.6639 32.511 21.8349 32.511C22.0058 32.511 22.1647 32.5066 22.328 32.4972C23.9695 32.406 25.5327 31.8545 26.7295 30.9443C28.0261 29.958 28.817 28.616 28.955 27.1655C29.0809 25.852 28.6545 24.5332 27.7532 23.4516C27.2239 22.823 26.5816 22.299 25.8594 21.9067L23.8453 23.9212C24.6091 24.1972 25.2625 24.6303 25.7031 25.1595Z" fill="white"/>
<path d="M38.6583 15.3234C36.9395 11.2432 33.766 7.94718 29.7537 6.07521C25.7415 4.20324 21.1768 3.88887 16.9458 5.19312C12.7148 6.49738 9.11931 9.32721 6.85738 13.1333C4.59544 16.9393 3.82841 21.4501 4.70517 25.7899C5.58194 30.1297 8.03995 33.9889 11.602 36.6183C15.1641 39.2477 19.5762 40.4598 23.9817 40.0192C28.3872 39.5787 32.4718 37.5169 35.4426 34.2341C38.4135 30.9514 40.0586 26.6818 40.0586 22.2544C40.0616 19.8735 39.5854 17.5164 38.6583 15.3234ZM22.2549 7.69634C25.4828 7.69157 28.6198 8.76441 31.1688 10.7448L10.7453 31.1682C8.76498 28.6193 7.69214 25.4822 7.69691 22.2544C7.69691 14.2143 14.2148 7.69634 22.2549 7.69634ZM22.2549 36.8124C18.8811 36.8175 15.6111 35.6458 13.0082 33.4991L33.4997 13.0076C35.6464 15.6105 36.8181 18.8805 36.813 22.2544C36.813 30.2945 30.2951 36.8124 22.2549 36.8124Z" fill="white"/>
</svg>
