<svg width="19" height="19" viewBox="0 0 19 19" fill="none" xmlns="http://www.w3.org/2000/svg">
<path d="M13.0594 0.13916H5.4189C2.1001 0.13916 0.121582 2.11669 0.121582 5.43384V13.0615C0.121582 16.3877 2.1001 18.3652 5.4189 18.3652H13.0503C16.3691 18.3652 18.3476 16.3877 18.3476 13.0706V5.43384C18.3568 2.11669 16.3782 0.13916 13.0594 0.13916ZM9.23917 12.7881C7.288 12.7881 5.70154 11.2024 5.70154 9.2522C5.70154 7.30201 7.288 5.71634 9.23917 5.71634C11.1903 5.71634 12.7768 7.30201 12.7768 9.2522C12.7768 11.2024 11.1903 12.7881 9.23917 12.7881ZM14.6368 4.58633C14.5912 4.69568 14.5274 4.79593 14.4453 4.88706C14.3541 4.96907 14.2538 5.03286 14.1444 5.07843C14.035 5.124 13.9165 5.15133 13.798 5.15133C13.5518 5.15133 13.3238 5.0602 13.1506 4.88706C13.0686 4.79593 13.0047 4.69568 12.9591 4.58633C12.9136 4.47697 12.8862 4.3585 12.8862 4.24003C12.8862 4.12156 12.9136 4.00309 12.9591 3.89373C13.0047 3.77526 13.0686 3.68413 13.1506 3.593C13.3603 3.3834 13.6794 3.28316 13.9712 3.34695C14.035 3.35606 14.0897 3.37429 14.1444 3.40163C14.1991 3.41986 14.2538 3.4472 14.3085 3.48365C14.3541 3.51099 14.3997 3.55655 14.4453 3.593C14.5274 3.68413 14.5912 3.77526 14.6368 3.89373C14.6824 4.00309 14.7097 4.12156 14.7097 4.24003C14.7097 4.3585 14.6824 4.47697 14.6368 4.58633Z" fill="currentColor"/>
</svg>
