<svg width="97" height="98" viewBox="0 0 97 98" fill="none" xmlns="http://www.w3.org/2000/svg">
<path d="M96.0219 67.1653C98.0624 69.2347 96.2627 72.7061 93.3956 72.2313L63.1374 67.2205C61.8551 67.0082 60.582 67.6456 59.9839 68.7995L45.868 96.0283C44.5304 98.6084 40.6727 97.9695 40.2383 95.096L35.6536 64.7703C35.4593 63.4852 34.4596 62.4714 33.1774 62.2591L2.91919 57.2482C0.0520588 56.7734 -0.532456 52.9071 2.06618 51.606L29.4909 37.8745C30.653 37.2926 31.3083 36.0286 31.114 34.7435L26.5293 4.41781C26.0949 1.54429 29.5913 -0.206367 31.6318 1.86301L53.1659 23.7022C54.0785 24.6277 55.4831 24.8603 56.6453 24.2784L84.07 10.5469C86.6686 9.24577 89.414 12.0301 88.0765 14.6102L73.9606 41.839C73.3624 42.9929 73.5753 44.4007 74.4878 45.3261L96.0219 67.1653Z" fill="#C61212"/>
</svg>
