<svg width="36" height="33" viewBox="0 0 36 33" fill="none" xmlns="http://www.w3.org/2000/svg">
<path d="M0 6.86955C0.115759 6.41335 0.191137 5.94508 0.349969 5.50095C1.44564 2.46927 3.77159 0.680679 7.24436 0.079654C7.62125 0.0144825 8.01429 0.00482751 8.39926 0.00482751C12.8385 0 17.2777 0 21.7196 0C22.4034 0 22.8637 0.34034 22.8745 0.938951C22.8934 1.96721 22.9068 2.99789 22.8395 4.02373C22.7668 5.13406 21.6739 6.07784 20.4301 6.10922C18.8741 6.14784 17.3127 6.15749 15.7567 6.12129C14.1791 6.08508 13.1346 5.07854 13.105 3.63753C13.0942 3.07271 13.105 2.50789 13.105 1.89963H12.7308C11.3713 1.89963 10.0118 1.89721 8.655 1.89963C5.37606 1.90687 2.73514 3.90546 2.19942 6.79714C2.13481 7.14713 2.12135 7.5092 2.12135 7.86402C2.11597 15.2356 2.11866 22.6072 2.11866 29.9813C2.11866 30.0947 2.11866 30.2082 2.11866 30.3433H3.73121C3.73121 30.2251 3.73121 30.1044 3.73121 29.9837C3.73121 26.6551 3.73121 23.3265 3.73121 19.9956C3.73121 19.2111 4.1431 18.849 5.02609 18.8466C6.87824 18.8466 8.72769 18.8466 10.5798 18.8466H11.0079C11.0079 18.709 11.0079 18.598 11.0079 18.4846C11.0079 17.5384 11.0025 16.5946 11.0079 15.6484C11.0133 14.7263 11.7105 14.3184 12.6581 14.6756C14.2949 15.2936 15.929 15.9163 17.5631 16.5342C17.7111 16.5898 17.8619 16.6429 18.0665 16.7177C18.0665 16.2591 18.0665 15.8342 18.0665 15.4118C18.0665 15.0643 18.0665 14.7191 18.0665 14.3715C18.0692 13.7343 18.4784 13.3529 19.1945 13.3457C20.2013 13.336 21.2081 13.3408 22.2177 13.3432C24.0563 13.3457 25.8977 13.3264 27.7337 13.3626C29.8847 13.406 31.9064 15.0667 32.1891 16.976C32.2375 17.297 32.2591 17.6228 32.2591 17.9487C32.2645 21.9507 32.2618 25.9503 32.2618 29.9523V30.3626C32.9079 30.3626 33.5243 30.3626 34.1408 30.3626C34.3993 30.3626 34.6577 30.3602 34.9135 30.3651C35.4465 30.3771 35.8584 30.662 35.9714 31.0892C36.0845 31.5164 35.8557 31.9461 35.3953 32.1706C35.3334 32.1995 35.2742 32.2309 35.215 32.2623H0.772624C0.417271 32.1223 0.153448 31.8954 0 31.5719C0 23.3362 0 15.1029 0 6.86955ZM30.0973 30.3482C30.1081 30.2637 30.127 30.1913 30.127 30.1213C30.127 26.0034 30.1404 21.8879 30.1216 17.7701C30.1135 16.2518 28.9317 15.2501 27.2357 15.2477C25.0201 15.2477 22.8072 15.2477 20.5916 15.2477H20.1905C20.1905 15.7811 20.239 16.2784 20.1771 16.7611C20.1044 17.3356 20.2874 17.6687 20.9389 17.8304C21.5016 17.968 21.7304 18.3614 21.7277 18.8901C21.7142 20.529 21.7223 22.1655 21.7223 23.8045C21.7223 23.9155 21.7223 24.0265 21.7223 24.1569C21.9134 24.1569 22.0534 24.1569 22.1934 24.1569C23.8571 24.1569 25.5208 24.1521 27.1845 24.1569C28.0137 24.1593 28.4094 24.5238 28.4121 25.2648C28.4121 26.841 28.4121 28.4147 28.4121 29.9909C28.4121 30.102 28.4121 30.2154 28.4121 30.3433H30.1L30.0973 30.3482ZM13.1615 16.9446V30.3458H19.5687C19.5794 30.2782 19.5902 30.2275 19.5902 30.1768C19.5902 26.6479 19.5929 23.119 19.5821 19.5901C19.5821 19.4911 19.461 19.3438 19.3533 19.3004C18.823 19.0807 18.2792 18.8876 17.7434 18.6825C16.2278 18.108 14.7122 17.5311 13.1615 16.9422V16.9446ZM5.88756 20.7945V30.3506H10.9783V20.7945H5.88756ZM26.2827 26.1072H21.7412V30.3409H26.2827V26.1072ZM20.7397 1.92135H15.2506C15.2506 2.54169 15.2425 3.1403 15.2533 3.7365C15.2587 4.02132 15.4659 4.21683 15.7836 4.21925C17.2589 4.22649 18.7341 4.2289 20.2094 4.21925C20.5136 4.21925 20.7262 4.04787 20.7343 3.76787C20.7532 3.16202 20.7397 2.55375 20.7397 1.92376V1.92135Z" fill="white"/>
<path d="M22.417 7.12267C22.7427 7.13715 23.0819 7.33991 23.2515 7.7237C23.4857 8.24748 23.6984 8.77851 23.8976 9.31195C24.086 9.81401 23.7926 10.3402 23.2596 10.514C22.7292 10.6854 22.1478 10.473 21.9243 9.99021C21.6793 9.45919 21.4505 8.92092 21.254 8.37541C21.0225 7.73094 21.5393 7.11302 22.4143 7.12267H22.417Z" fill="white"/>
<path d="M14.7878 8.14413C14.7717 8.20689 14.7528 8.3324 14.707 8.45068C14.5159 8.93343 14.3248 9.41618 14.1229 9.8941C13.886 10.4493 13.291 10.7075 12.7176 10.512C12.1657 10.3238 11.9046 9.78066 12.1173 9.23997C12.3165 8.73791 12.5184 8.23585 12.7338 7.74103C12.933 7.28724 13.431 7.04587 13.9425 7.13276C14.4244 7.21483 14.7959 7.63 14.7878 8.14654V8.14413Z" fill="white"/>
<path d="M16.9411 9.30006C16.9411 9.03696 16.9357 8.77627 16.9411 8.51317C16.9572 7.99421 17.4337 7.57422 17.9991 7.57422C18.5671 7.57422 19.0409 7.99421 19.049 8.518C19.0597 9.05385 19.0597 9.58729 19.049 10.1231C19.0382 10.6493 18.5698 11.0355 17.9748 11.0307C17.4041 11.0259 16.9572 10.6349 16.9411 10.1183C16.933 9.84556 16.9411 9.57281 16.9411 9.30006Z" fill="white"/>
<path d="M25.2892 19.6121C25.6984 19.6121 26.1076 19.6073 26.5168 19.6121C27.1817 19.6218 27.6663 20.0273 27.669 20.5704C27.6744 21.111 27.1871 21.531 26.5275 21.5383C25.7092 21.5455 24.8908 21.5455 24.0751 21.5383C23.4128 21.5335 22.9282 21.1207 22.9229 20.58C22.9202 20.0393 23.4047 19.6218 24.0616 19.6121C24.4708 19.6049 24.88 19.6121 25.2892 19.6121Z" fill="white"/>
<path d="M25.2785 18.2772C24.8558 18.2772 24.4358 18.282 24.0132 18.2772C23.3913 18.27 22.9283 17.8669 22.9229 17.3383C22.9175 16.8096 23.3805 16.3897 23.9943 16.3848C24.8612 16.3776 25.728 16.3776 26.5949 16.3848C27.2033 16.3897 27.6771 16.8169 27.669 17.3383C27.6636 17.862 27.1952 18.27 26.5787 18.2796C26.1453 18.2845 25.7119 18.2796 25.2785 18.2796V18.2772Z" fill="white"/>
<path d="M16.3326 22.2375C16.0176 22.2375 15.7026 22.2424 15.3876 22.2375C14.7792 22.2255 14.3027 21.8127 14.2866 21.2962C14.2704 20.8086 14.6958 20.3596 15.2773 20.3331C15.988 20.2993 16.7014 20.2969 17.4121 20.3283C18.0312 20.3548 18.4485 20.811 18.4162 21.3372C18.3839 21.8393 17.9155 22.2255 17.3152 22.2375C16.9894 22.2448 16.661 22.2375 16.3352 22.2375H16.3326Z" fill="white"/>
<path d="M16.3328 28.7338C16.0044 28.7338 15.6759 28.7386 15.3502 28.7338C14.7714 28.7217 14.2976 28.2969 14.2868 27.7924C14.276 27.3 14.7175 26.8559 15.291 26.839C16.0044 26.8173 16.7204 26.8148 17.4338 26.839C18.018 26.8607 18.4299 27.2879 18.4191 27.7997C18.4084 28.3138 17.948 28.7217 17.3558 28.7338C17.0166 28.741 16.6774 28.7338 16.3355 28.7338H16.3328Z" fill="white"/>
<path d="M16.3679 23.5729C16.6964 23.5729 17.0248 23.5681 17.3532 23.5729C17.9455 23.585 18.4085 23.9954 18.4166 24.5071C18.4274 25.0284 17.9993 25.4557 17.3963 25.4726C16.6937 25.4919 15.9911 25.4919 15.2884 25.4702C14.7177 25.4508 14.2762 25.0067 14.2843 24.5167C14.2951 24.0122 14.7689 23.5874 15.3477 23.5754C15.6869 23.5681 16.0261 23.5754 16.3679 23.5754V23.5729Z" fill="white"/>
<path d="M8.4314 25.8489C8.64138 25.8489 8.85405 25.8392 9.06403 25.8489C9.64552 25.8803 10.0924 26.2761 10.1166 26.7685C10.1409 27.2634 9.73974 27.7075 9.15557 27.7582C8.68176 27.7992 8.1945 27.7968 7.72069 27.7582C7.13651 27.7099 6.7327 27.2682 6.75424 26.7734C6.77578 26.2713 7.23881 25.873 7.83645 25.8465C8.03567 25.8392 8.23488 25.8465 8.43409 25.8465L8.4314 25.8489Z" fill="white"/>
<path d="M8.437 22.2475C8.65775 22.2475 8.88119 22.2402 9.10194 22.2475C9.64304 22.2692 10.0953 22.6795 10.1168 23.1599C10.1411 23.6498 9.73727 24.0988 9.18808 24.1326C8.68736 24.164 8.18125 24.164 7.68322 24.1326C7.13404 24.0988 6.73022 23.6498 6.75445 23.1599C6.77599 22.6771 7.22826 22.2692 7.76936 22.2475C7.99011 22.2378 8.21355 22.2475 8.4343 22.2475H8.437Z" fill="white"/>
<path d="M23.7951 28.9411C23.5528 28.9194 23.3024 28.9242 23.0709 28.8663C22.5863 28.748 22.2579 28.3183 22.2983 27.8983C22.3387 27.4542 22.6994 27.0777 23.2028 27.0294C23.6066 26.9908 24.0212 26.9884 24.4223 27.0294C24.9877 27.0849 25.3457 27.5121 25.3161 28.0214C25.2892 28.497 24.8692 28.8807 24.3227 28.9169C24.1477 28.929 23.9727 28.9169 23.7978 28.9169C23.7978 28.9242 23.7978 28.9314 23.7978 28.9387L23.7951 28.9411Z" fill="white"/>
</svg>
