<svg width="21" height="21" viewBox="0 0 21 21" fill="none" xmlns="http://www.w3.org/2000/svg">
<path d="M14.3066 6.21568C14.4837 6.23173 14.662 6.24064 14.8379 6.2656C15.0964 6.30185 15.3139 6.42486 15.4999 6.60611C15.6277 6.73031 15.7531 6.85689 15.8791 6.98347C16.1994 7.30615 16.5755 7.55158 16.96 7.7875C17.2043 7.93726 17.4479 8.09117 17.6725 8.26826C17.959 8.49408 18.0897 8.81201 18.1307 9.16976C18.189 9.68439 18.0986 10.1848 17.9899 10.6833C17.8722 11.2235 17.6809 11.7393 17.4592 12.2457C17.2649 12.689 17.0753 13.1347 16.8935 13.5839C16.7443 13.9524 16.6682 14.3404 16.6278 14.7356C16.5684 15.3186 16.5916 15.9022 16.61 16.4857C16.6284 17.0544 16.6611 17.6237 16.651 18.1918C16.6445 18.5532 16.5767 18.9133 16.528 19.2728C16.4941 19.5242 16.3295 19.6074 16.109 19.621C15.8256 19.6389 15.6568 19.5313 15.57 19.2383C15.494 18.9816 15.4351 18.7154 15.4078 18.4498C15.3561 17.9411 15.3377 17.4288 15.2955 16.9189C15.2628 16.5255 15.2379 16.1292 15.1184 15.7488C15.081 15.63 15.0305 15.5111 14.9645 15.4059C14.8742 15.2621 14.7749 15.2633 14.659 15.3893C14.5081 15.5533 14.4552 15.7601 14.4166 15.9699C14.2971 16.6159 14.1789 17.2618 14.0642 17.909C13.9846 18.3588 13.9121 18.8105 13.836 19.2609C13.792 19.5212 13.754 19.7833 13.7005 20.0418C13.6357 20.3561 13.4729 20.6099 13.1888 20.7721C12.8792 20.9492 12.5304 20.7721 12.4745 20.4179C12.4401 20.2016 12.4704 19.9877 12.4965 19.775C12.5536 19.3138 12.6178 18.8539 12.6831 18.3939C12.7259 18.0908 12.7812 17.7889 12.8216 17.4853C12.8572 17.2161 12.8846 16.9451 12.9054 16.6747C12.9226 16.4501 12.9309 16.2248 12.9321 15.9996C12.9327 15.8267 12.9196 15.6537 12.9042 15.4814C12.9 15.4345 12.8667 15.3899 12.8465 15.3441C12.8014 15.3703 12.7425 15.3863 12.7134 15.4244C12.632 15.5295 12.5595 15.6425 12.49 15.756C12.2992 16.0656 12.1061 16.3734 11.9248 16.6884C11.6461 17.1727 11.3769 17.6624 11.103 18.1491C10.9116 18.4896 10.7167 18.8283 10.5289 19.1712C10.4499 19.3162 10.3887 19.4707 10.3126 19.6175C10.2241 19.788 10.1421 19.9645 10.0315 20.1208C9.88652 20.3252 9.66546 20.3918 9.42538 20.3449C9.17638 20.2961 8.99573 20.1529 8.92025 19.8974C8.87925 19.7583 8.89946 19.6228 8.93749 19.4885C9.07476 19.0048 9.26433 18.5401 9.47292 18.0837C9.86929 17.2161 10.2722 16.3514 10.6733 15.4856C10.7904 15.2324 10.917 14.9834 11.0245 14.7261C11.0685 14.6215 11.0834 14.5015 11.0941 14.3874C11.1059 14.262 11.0281 14.2043 10.9051 14.2382C10.766 14.2763 10.6436 14.3458 10.5497 14.4563C10.0143 15.0874 9.40814 15.6514 8.84003 16.2516C8.4181 16.6967 7.97894 17.1263 7.5386 17.5536C7.41558 17.6731 7.27058 17.7741 7.12202 17.8608C6.81122 18.0427 6.51349 17.966 6.30788 17.6695C6.18427 17.4918 6.15931 17.3064 6.2853 17.1234C6.55153 16.7365 6.81716 16.3484 7.09765 15.9711C7.44708 15.5004 7.81433 15.0428 8.16851 14.5752C8.512 14.1217 8.85251 13.6653 9.18827 13.2054C9.57691 12.6735 9.93704 12.1232 10.2247 11.529C10.3922 11.1825 10.5331 10.8266 10.5806 10.4421C10.5937 10.3387 10.5866 10.2287 10.567 10.1253C10.545 10.0089 10.4558 9.93636 10.3506 9.88644C10.2033 9.81632 10.0452 9.78244 9.88415 9.77709C9.53294 9.7664 9.18232 9.78006 8.8329 9.82523C8.59579 9.85613 8.35511 9.89654 8.118 9.88584C7.75015 9.8692 7.38409 9.81216 7.04952 9.63923C6.81776 9.51918 6.63948 9.35636 6.60026 9.07943C6.58005 8.93918 6.63948 8.79478 6.77319 8.74308C6.89144 8.69732 7.01862 8.6688 7.1446 8.65275C7.38706 8.62244 7.63308 8.61769 7.87435 8.58144C8.2523 8.52439 8.6154 8.40375 8.96423 8.25281C9.63575 7.96281 10.2978 7.65201 10.9651 7.3531C11.6123 7.06369 12.2606 6.77607 12.9101 6.49201C13.354 6.29769 13.8229 6.22222 14.3066 6.21509V6.21568Z" fill="currentColor"/>
<path d="M9.57938 10.7309C9.55799 10.804 9.54432 10.861 9.52411 10.9157C9.37911 11.3139 9.17172 11.6799 8.92747 12.0228C8.50377 12.6171 8.0646 13.1995 7.63793 13.7919C7.45311 14.0487 7.28553 14.3173 7.10666 14.5782C7.08823 14.6049 7.04366 14.6239 7.0092 14.6275C6.84459 14.6453 6.67879 14.6536 6.51418 14.6715C6.20873 14.7041 5.90387 14.7327 5.59664 14.7184C5.30307 14.7047 5.01545 14.6631 4.74684 14.536C4.41108 14.3773 4.17219 14.1182 3.9749 13.8092C3.62903 13.2666 3.44006 12.664 3.29922 12.046C3.15957 11.4321 3.04963 10.8123 2.92543 10.1949C2.81787 9.65885 2.60156 9.16383 2.34602 8.68426C1.9651 7.96877 1.49445 7.31033 1.03092 6.64713C0.739139 6.22996 0.439037 5.81695 0.203115 5.36353C0.108033 5.18109 0.0307789 4.99033 0.00403715 4.78412C-0.0161678 4.63259 0.0367215 4.36992 0.225103 4.26711C0.364754 4.19105 0.504406 4.19521 0.647029 4.2475C0.812828 4.30871 0.934651 4.42757 1.04459 4.56068C1.53248 5.15257 2.02274 5.74207 2.50588 6.33812C2.74656 6.63525 2.99199 6.92644 3.29981 7.15582C3.3842 7.21822 3.47988 7.26933 3.57674 7.31033C3.6843 7.35549 3.73125 7.31746 3.72768 7.20158C3.72115 6.97873 3.66469 6.76539 3.58149 6.56156C3.37291 6.04931 3.16016 5.53824 2.94207 5.02955C2.75547 4.59574 2.56233 4.1649 2.36504 3.73644C2.18617 3.34839 1.98531 2.96984 1.84922 2.56337C1.78979 2.38628 1.7476 2.20681 1.75176 2.01902C1.75711 1.78548 1.87061 1.62859 2.09524 1.5656C2.19568 1.53767 2.30502 1.52222 2.40842 1.52757C2.56947 1.53589 2.67524 1.65058 2.76676 1.76824C2.9593 2.01546 3.09242 2.29773 3.23266 2.57644C3.52088 3.14812 3.81504 3.71683 4.10385 4.28851C4.31481 4.70509 4.52221 5.12404 4.7302 5.5424C4.80983 5.70285 4.8966 5.85795 5.03149 5.97918C5.06596 6.01009 5.10399 6.0392 5.145 6.06179C5.25375 6.1224 5.32922 6.07961 5.33041 5.95482C5.3316 5.83121 5.33219 5.70701 5.32565 5.58341C5.30367 5.14603 5.27633 4.70925 5.25494 4.27187C5.23235 3.81726 5.22166 3.36265 5.19313 2.90863C5.17174 2.57109 5.12955 2.23474 5.09864 1.89779C5.07071 1.60007 5.04338 1.30234 5.01961 1.00402C5.00653 0.841194 5.00178 0.677772 4.99049 0.514944C4.9792 0.347363 5.03803 0.213059 5.17828 0.120355C5.46352 -0.0674323 5.89198 -0.0448503 6.12078 0.254658C6.1802 0.332506 6.22121 0.432936 6.242 0.529207C6.34719 1.01947 6.44821 1.51033 6.54092 2.00298C6.60569 2.34527 6.65858 2.68994 6.71147 3.03402C6.78694 3.52488 6.86004 4.01574 6.92838 4.50779C6.9783 4.86732 7.01514 5.22863 7.06268 5.58875C7.07991 5.7189 7.13102 5.83715 7.23026 5.92808C7.2576 5.95304 7.28791 5.97562 7.32 5.99226C7.44063 6.05406 7.51075 6.03088 7.54344 5.89896C7.61297 5.61847 7.67536 5.33619 7.73301 5.05332C7.8477 4.49234 7.96299 3.93076 8.06817 3.368C8.16206 2.86584 8.24051 2.36013 8.33202 1.85738C8.39323 1.52222 8.46098 1.18765 8.60301 0.874473C8.61192 0.854268 8.62202 0.834063 8.63272 0.814452C8.78129 0.540498 8.9346 0.472158 9.23887 0.543469C9.54669 0.615969 9.70893 0.80019 9.75053 1.11931C9.7844 1.3796 9.76241 1.63691 9.72854 1.89541C9.69348 2.16521 9.66555 2.4356 9.63167 2.7048C9.56868 3.21171 9.577 3.72218 9.55739 4.23087C9.53719 4.75976 9.51579 5.28925 9.50094 5.81814C9.48905 6.2264 9.48549 6.63465 9.48073 7.04291C9.48014 7.09699 9.46053 7.11363 9.40942 7.13265C9.19608 7.21049 8.98928 7.30795 8.77415 7.37926C8.35698 7.51773 7.93922 7.65441 7.51491 7.76791C7.3194 7.82021 7.10903 7.82912 6.90461 7.83506C6.31332 7.85289 5.80938 8.25105 5.69291 8.82807C5.63586 9.10916 5.69053 9.38549 5.82721 9.63984C6.02688 10.0107 6.34541 10.2495 6.71325 10.4338C7.05733 10.6061 7.42637 10.6774 7.80491 10.7137C8.36649 10.7672 8.92807 10.7172 9.48965 10.7279C9.51342 10.7279 9.53778 10.7279 9.57938 10.7279V10.7309Z" fill="currentColor"/>
<path d="M19.1869 9.69028C19.1607 10.007 19.1708 10.3208 19.0651 10.6203C18.9973 10.8122 18.8785 10.9489 18.6734 10.9994C18.5237 11.0363 18.4625 10.9965 18.4738 10.8414C18.4839 10.7017 18.5201 10.5638 18.5356 10.4242C18.5576 10.2251 18.5831 10.0254 18.5849 9.82577C18.5873 9.512 18.5992 9.19585 18.5213 8.88802C18.4892 8.76026 18.4351 8.63605 18.3799 8.51542C18.3199 8.38468 18.2783 8.25157 18.2979 8.10776C18.3175 7.96097 18.4387 7.9063 18.5659 7.98118C18.7156 8.06972 18.8173 8.20403 18.8993 8.35259C19.0544 8.63427 19.1227 8.94269 19.1536 9.25944C19.1679 9.40444 19.1762 9.55003 19.1869 9.68909V9.69028Z" fill="currentColor"/>
<path d="M4.46629 15.9075C4.3403 15.9105 4.20897 15.8576 4.08596 15.7786C3.72524 15.5486 3.42336 15.255 3.15178 14.927C2.93131 14.6608 2.73461 14.3791 2.60328 14.0588C2.55217 13.9352 2.52424 13.7991 2.50463 13.6654C2.48086 13.5073 2.59377 13.4194 2.75006 13.4556C2.90932 13.4925 3.00975 13.5947 3.06561 13.7421C3.1601 13.9928 3.27242 14.2335 3.41979 14.4581C3.65809 14.8206 3.95938 15.1124 4.34565 15.3163C4.45203 15.3721 4.54889 15.447 4.64397 15.5213C4.68082 15.5498 4.71053 15.5967 4.72658 15.6419C4.78362 15.8018 4.68319 15.9123 4.46748 15.9075H4.46629Z" fill="currentColor"/>
<path d="M20.1541 9.69401C20.1428 10.0565 20.0923 10.4915 19.9093 10.901C19.8564 11.0192 19.7893 11.1286 19.6787 11.204C19.5884 11.2658 19.5165 11.2712 19.4452 11.223C19.3566 11.1624 19.3043 11.0531 19.3341 10.961C19.3881 10.7946 19.4612 10.6335 19.5052 10.4648C19.5611 10.2508 19.6104 10.0327 19.6371 9.81346C19.6758 9.49969 19.6128 9.19424 19.51 8.89651C19.4761 8.79846 19.447 8.69862 19.422 8.59819C19.3988 8.5043 19.4018 8.41159 19.4624 8.32899C19.545 8.21608 19.69 8.19588 19.8029 8.27967C19.9045 8.35514 19.9634 8.45973 19.9996 8.57799C20.0953 8.89116 20.1535 9.28754 20.1535 9.69401H20.1541Z" fill="currentColor"/>
<path d="M1.91099 13.8776C2.03638 13.874 2.12671 13.9423 2.18435 14.0404C2.24556 14.1432 2.30499 14.2543 2.33054 14.3696C2.46484 14.9698 2.81962 15.412 3.30097 15.7691C3.40021 15.8428 3.50599 15.91 3.59335 15.9955C3.73894 16.1376 3.68486 16.3402 3.48698 16.3865C3.42042 16.402 3.33484 16.377 3.26888 16.3461C2.97234 16.2089 2.7281 16.0009 2.52071 15.7501C2.14751 15.299 1.86286 14.8011 1.73212 14.224C1.72142 14.1765 1.71726 14.1266 1.71607 14.0772C1.71132 13.9382 1.77312 13.8764 1.91159 13.8776H1.91099Z" fill="currentColor"/>
</svg>
