<svg width="14" height="14" viewBox="0 0 17 19" fill="none" xmlns="http://www.w3.org/2000/svg">
<path d="M16.9132 13.0706C16.9132 16.3877 15.1828 18.3652 12.2803 18.3652L11.3314 18.3652C10.8929 18.3652 10.534 17.9552 10.534 17.4539L10.534 12.1957C10.534 11.9497 10.7095 11.7401 10.9248 11.7401L12.3282 11.7127C12.4398 11.7036 12.5355 11.6125 12.5594 11.4849L12.8385 9.74431C12.8624 9.58027 12.7508 9.42535 12.5993 9.42535L10.9008 9.45269C10.6776 9.45269 10.5021 9.2522 10.4942 9.00615L10.4623 6.77346C10.4623 6.62765 10.5659 6.50007 10.7015 6.50007L12.6152 6.46361C12.7508 6.46361 12.8544 6.34515 12.8544 6.19023L12.8225 4.00308C12.8225 3.84816 12.7189 3.7297 12.5833 3.7297L10.4304 3.76616C9.1067 3.7935 8.05414 5.03286 8.07806 6.54563L8.11793 9.05172C8.12591 9.30688 7.95048 9.50737 7.72721 9.51648L6.77034 9.53471C6.63478 9.53471 6.53113 9.65318 6.53113 9.8081L6.55505 11.5396C6.55505 11.6945 6.65871 11.813 6.79426 11.813L7.75113 11.7947C7.9744 11.7947 8.14983 11.9952 8.1578 12.2413L8.22957 17.4357C8.23754 17.946 7.87872 18.3652 7.43218 18.3652L5.59818 18.3652C2.69567 18.3652 0.965333 16.3877 0.965333 13.0615L0.965332 5.43384C0.965332 2.11669 2.69567 0.13916 5.59818 0.13916L12.2803 0.139159C15.1828 0.139159 16.9132 2.11669 16.9132 5.43384L16.9132 13.0706Z" fill="currentColor"/>
</svg>
