<svg width="20" height="19" viewBox="0 0 20 19" fill="none" xmlns="http://www.w3.org/2000/svg">
<path d="M19.781 7.38498V7.58335C19.781 7.58335 19.7702 7.60275 19.768 7.61354C19.7271 7.95637 19.5373 8.20002 19.2635 8.39839C17.9051 9.38162 16.5488 10.3692 15.1904 11.3545C14.7592 11.6672 14.6082 12.1286 14.7721 12.631C14.9705 13.2434 15.171 13.8557 15.3694 14.4681C15.6971 15.4793 16.0292 16.4906 16.3526 17.504C16.5316 18.0625 16.2599 18.6231 15.7187 18.8344C15.6454 18.8624 15.5677 18.8818 15.4923 18.9055H15.1624C15.0158 18.8409 14.8605 18.7891 14.7247 18.7093C14.5716 18.6188 14.4336 18.5045 14.2891 18.3988C13.0428 17.4932 11.7966 16.5876 10.5503 15.6842C10.132 15.3802 9.64683 15.3802 9.23284 15.6799C8.03399 16.5488 6.83946 17.4221 5.63846 18.2867C5.31503 18.5196 5.02178 18.8128 4.61211 18.9055H4.28221C4.28221 18.9055 4.2628 18.8926 4.25418 18.8905C3.68279 18.7934 3.17608 18.1789 3.43698 17.4458C3.56204 17.0965 3.66769 16.7429 3.78197 16.3914C4.18949 15.1365 4.59701 13.8838 5.00454 12.6289C5.06491 12.4413 5.08863 12.2494 5.04982 12.0531C4.98944 11.7448 4.81695 11.5163 4.56683 11.3351C3.20842 10.3519 1.85217 9.36437 0.493769 8.37899C0.258744 8.20865 0.0884041 7.99734 0.0258744 7.70625C0.0194058 7.66744 0.00862479 7.62432 0 7.58335C0 7.51651 0 7.45182 0 7.38498C0.00646859 7.36342 0.0150934 7.34401 0.0172496 7.32245C0.0539049 7.08958 0.150934 6.88905 0.314805 6.72087C0.543362 6.48584 0.830136 6.40175 1.15141 6.40391C2.83756 6.40391 4.5237 6.40391 6.20985 6.40391C6.73381 6.40391 7.12408 6.11929 7.28579 5.62121C7.61138 4.62073 7.93481 3.62026 8.26039 2.61978C8.46739 1.98155 8.67223 1.34116 8.88785 0.705077C9.00428 0.362241 9.25224 0.144465 9.59939 0.0452802C9.66408 0.0258744 9.72661 0.0150934 9.79129 0C9.85814 0 9.92282 0 9.98967 0C10.0004 0.0043124 10.0091 0.010781 10.0199 0.0129372C10.4985 0.0819355 10.7875 0.357929 10.9341 0.812887C11.2403 1.77024 11.5551 2.72543 11.8656 3.68279C12.079 4.34258 12.2903 5.00238 12.5103 5.66002C12.6439 6.05892 12.9264 6.30904 13.3426 6.38235C13.528 6.41469 13.7199 6.40391 13.9096 6.40391C15.4858 6.40391 17.062 6.40391 18.6382 6.40391C19.1966 6.40391 19.602 6.70146 19.7378 7.20386C19.7551 7.26423 19.7659 7.3246 19.781 7.38713V7.38498ZM6.42331 10.4942C6.42331 11.2079 6.42331 11.9216 6.42331 12.6375C6.42331 12.8121 6.488 12.8768 6.6605 12.8768C6.89121 12.8768 7.12192 12.8768 7.35263 12.8768C7.54022 12.8768 7.59844 12.8186 7.6006 12.631C7.6006 12.2817 7.6006 11.9324 7.6006 11.5853C7.6006 11.4516 7.66313 11.389 7.79466 11.3804C7.83778 11.3783 7.88306 11.3804 7.92618 11.3804C8.1914 11.3632 8.46092 11.3696 8.72182 11.3244C9.28243 11.2295 9.64683 10.9039 9.76973 10.339C9.85598 9.94439 9.85598 9.54764 9.76973 9.15306C9.66839 8.68301 9.3924 8.36174 8.92882 8.21511C8.69379 8.1418 8.4523 8.11162 8.20649 8.10946C7.69763 8.10946 7.19092 8.10946 6.68206 8.10946C6.48153 8.10946 6.42331 8.16768 6.42331 8.36821C6.42331 9.07759 6.42331 9.78483 6.42331 10.4942ZM12.1955 8.10946C11.6176 8.10946 11.0419 8.10946 10.464 8.10946C10.3131 8.10946 10.2463 8.17199 10.2441 8.32292C10.2419 8.57089 10.2419 8.81669 10.2441 9.06466C10.2441 9.2199 10.3109 9.28459 10.4662 9.28459C10.7594 9.28459 11.0548 9.28459 11.3481 9.28459C11.5508 9.28459 11.6003 9.33418 11.6003 9.53686C11.6003 10.5567 11.6003 11.5745 11.6003 12.5944C11.6003 12.6267 11.6003 12.6612 11.6003 12.6935C11.6133 12.8035 11.678 12.8725 11.7879 12.8747C12.0575 12.879 12.327 12.879 12.5944 12.8747C12.7065 12.8747 12.7668 12.8035 12.7733 12.6892C12.7755 12.6526 12.7733 12.6181 12.7733 12.5814C12.7733 11.5658 12.7733 10.5481 12.7733 9.53255C12.7733 9.34281 12.8315 9.28459 13.0191 9.28459C13.3124 9.28459 13.6078 9.28459 13.901 9.28459C14.0713 9.28459 14.136 9.22206 14.136 9.05172C14.136 8.82101 14.136 8.59029 14.136 8.35958C14.136 8.16768 14.0778 8.10946 13.8859 8.10946C13.321 8.10946 12.7539 8.10946 12.189 8.10946H12.1955Z" fill="currentColor"/>
</svg>
