<svg width="38" height="38" viewBox="0 0 38 38" fill="none" xmlns="http://www.w3.org/2000/svg">
<path d="M20.4154 0C21.1352 0.112024 21.8595 0.196892 22.5736 0.3406C28.1506 1.4631 32.3957 4.50021 35.3324 9.34554C37.3242 12.6327 38.1504 16.2424 37.9286 20.0648C37.4532 28.2233 31.9362 35.1699 24.0086 37.2339C16.4352 39.2051 9.90869 37.1615 4.63607 31.3622C2.15425 28.6329 0.718102 25.3593 0.197518 21.7157C-0.919475 13.8955 2.76536 6.38311 9.62236 2.45887C12.0035 1.09648 14.5645 0.299867 17.301 0.0746867C17.3802 0.0678973 17.4572 0.0260269 17.5352 0.00113266C18.4949 0.00113266 19.4557 0.00113266 20.4154 0.00113266V0ZM12.575 21.2801C10.9861 21.5335 9.47185 21.7723 7.95989 22.0246C7.86257 22.0405 7.75392 22.1559 7.70073 22.2532C6.80215 23.8793 5.90698 25.5076 5.02877 27.1449C4.962 27.2705 4.97105 27.5059 5.04687 27.6281C6.38907 29.7984 8.14775 31.5591 10.3172 32.9023C10.4395 32.9781 10.676 32.9883 10.8005 32.9204C12.4256 32.0491 14.0428 31.162 15.6532 30.2635C15.7845 30.19 15.9146 30.0123 15.9395 29.8641C16.1851 28.4225 16.4137 26.9775 16.6299 25.5313C16.648 25.408 16.5823 25.2292 16.4929 25.1387C15.2752 23.9042 14.0462 22.6798 12.8172 21.4555C12.7345 21.3729 12.627 21.3163 12.575 21.2789V21.2801ZM29.7543 31.2536C29.7395 31.1122 29.7384 31.0556 29.7282 31.0002C29.3898 29.2044 29.0594 27.4063 28.6995 25.6139C28.6656 25.4442 28.4833 25.2552 28.3204 25.1692C27.0744 24.5141 25.8204 23.8759 24.5575 23.2546C24.416 23.1856 24.1761 23.2003 24.0301 23.2739C22.5181 24.0264 21.013 24.7913 19.518 25.5766C19.3528 25.6626 19.1898 25.8855 19.157 26.0688C18.9137 27.4538 18.6975 28.8445 18.4938 30.2363C18.4712 30.3891 18.5323 30.6064 18.6364 30.7184C19.9016 32.0842 21.1793 33.4387 22.4661 34.7829C22.5555 34.8769 22.7614 34.9334 22.8882 34.904C25.3859 34.3145 27.604 33.1671 29.5619 31.5139C29.6569 31.4335 29.7135 31.3079 29.752 31.2548L29.7543 31.2536ZM19.0008 2.52337C18.5923 2.55279 18.1814 2.55958 17.7785 2.62182C17.6337 2.64445 17.447 2.77005 17.3847 2.90018C16.5812 4.56018 15.7935 6.22809 15.0161 7.90167C14.9572 8.02953 14.9595 8.23548 15.0217 8.36108C15.6611 9.64766 16.3107 10.9297 16.9796 12.2005C17.0565 12.3476 17.2534 12.4958 17.4153 12.5229C19.0959 12.8024 20.7821 13.0469 22.4615 13.3286C22.7162 13.3716 22.8486 13.2947 23.0059 13.1351C23.9792 12.1518 24.9524 11.1685 25.9438 10.2033C26.152 10.0007 26.2086 9.79816 26.1735 9.52998C25.9415 7.7557 25.7129 5.98141 25.49 4.206C25.4583 3.95592 25.3497 3.81788 25.1063 3.72056C23.1451 2.94318 21.1069 2.57316 19.0008 2.52111V2.52337ZM6.73651 8.18795C6.67653 8.22529 6.52941 8.27734 6.4434 8.37918C4.79338 10.3243 3.6662 12.5399 3.05847 15.0169C3.02339 15.1595 3.07318 15.3903 3.17277 15.4865C4.51724 16.7753 5.87415 18.0517 7.24011 19.3191C7.34423 19.4164 7.54342 19.4809 7.68262 19.4594C9.08932 19.2523 10.4938 19.0328 11.8948 18.7895C12.068 18.759 12.2819 18.6085 12.3622 18.4534C13.1533 16.9451 13.9251 15.4254 14.6856 13.9012C14.7535 13.7654 14.7648 13.5413 14.6992 13.409C14.0632 12.1212 13.4113 10.8415 12.7425 9.56958C12.6644 9.42248 12.4709 9.2833 12.3068 9.24369C11.7601 9.1113 11.2033 9.02643 10.6499 8.92233C9.37791 8.68357 8.10587 8.44368 6.73538 8.18682L6.73651 8.18795ZM35.4218 18.5723C35.3336 16.6826 34.9658 14.8585 34.3184 13.0831C34.1634 12.6587 33.9619 12.4256 33.4855 12.4347C33.1788 12.4403 32.871 12.36 32.5643 12.3204C31.1678 12.1382 29.7724 11.9481 28.3736 11.7863C28.1948 11.7659 27.9458 11.8395 27.819 11.9628C26.7858 12.9654 25.7707 13.9849 24.7634 15.0135C24.6684 15.1097 24.6141 15.3077 24.6333 15.4446C24.8845 17.1431 25.146 18.8404 25.4266 20.5344C25.4538 20.6962 25.6032 20.8919 25.7492 20.9689C26.9952 21.6229 28.2581 22.2464 29.5064 22.8971C29.7305 23.0136 29.9003 23.0215 30.1277 22.9118C31.3568 22.3166 32.5982 21.7485 33.8273 21.1533C34.3365 20.9067 35.0212 20.7335 35.2691 20.316C35.5373 19.8645 35.3879 19.1652 35.4196 18.5745L35.4218 18.5723ZM14.6392 19.6619C15.815 20.8365 16.9694 21.9963 18.1373 23.1415C18.2131 23.215 18.4236 23.2365 18.5244 23.1856C19.8971 22.4999 21.2585 21.7915 22.6324 21.1069C22.8588 20.9938 22.8973 20.8625 22.8576 20.6419C22.7716 20.1711 22.6992 19.6982 22.6234 19.2263C22.4434 18.1049 22.2658 16.9824 22.087 15.8633C20.4539 15.6008 18.8571 15.3383 17.2568 15.0972C17.138 15.0791 16.9286 15.1878 16.8732 15.2953C16.1251 16.7301 15.3963 18.1751 14.6403 19.6608L14.6392 19.6619ZM14.3993 3.20005C12.3577 3.81675 10.5854 4.70502 8.9422 5.99047C10.1837 6.23036 11.3414 6.4578 12.5025 6.6694C12.5953 6.68637 12.7662 6.62414 12.8013 6.55059C13.3298 5.46882 13.8414 4.37799 14.3993 3.20117V3.20005ZM16.8302 32.5538C15.6962 33.175 14.5917 33.7804 13.4272 34.4186C15.4156 35.1269 17.3768 35.4144 19.4976 35.3838C18.5572 34.3869 17.6993 33.4771 16.8302 32.5549V32.5538ZM32.5428 9.7246C31.3624 8.00237 29.9523 6.58566 28.2208 5.40319C28.3668 6.5834 28.5116 7.68554 28.6361 8.79107C28.6723 9.11356 28.7889 9.27877 29.1397 9.31611C30.2567 9.43266 31.3703 9.58203 32.5428 9.7246ZM31.9532 28.9781C33.0577 27.7537 34.6659 24.5242 34.6364 23.6088C33.5749 24.109 32.5179 24.6012 31.4711 25.1138C31.3737 25.1613 31.2685 25.3525 31.2866 25.4555C31.4926 26.6176 31.7212 27.7763 31.952 28.9792L31.9532 28.9781ZM3.53605 24.5163C4.15848 23.3791 4.73679 22.3358 5.29246 21.2801C5.33546 21.1986 5.24718 20.9949 5.16117 20.9089C4.62927 20.3839 4.0804 19.8758 3.53491 19.3643C3.24407 19.0916 2.9487 18.8235 2.58316 18.4874C2.53902 20.5932 2.83552 22.535 3.53605 24.5175V24.5163Z" fill="white"/>
</svg>
