<svg width="14" height="14" viewBox="0 0 32 32" fill="currentColor" xmlns="http://www.w3.org/2000/svg">
<path d="M0 31.7546C0.269464 30.7649 0.525502 29.8233 0.783458 28.8825C1.238 27.2197 1.69829 25.5579 2.13941 23.8912C2.1816 23.733 2.16146 23.5163 2.08379 23.3734C0.574408 20.6126 -0.113156 17.6514 0.184117 14.531C0.728798 8.81756 3.56919 4.5541 8.60653 1.80096C11.2101 0.37789 14.037 -0.186928 16.9868 0.0537669C22.1286 0.472826 26.1591 2.86923 29.0301 7.14421C31.0257 10.116 31.837 13.4426 31.5445 16.9993C31.1983 21.2119 29.4089 24.7428 26.2511 27.5592C24.0034 29.5643 21.3739 30.8081 18.406 31.2933C15.0113 31.8476 11.7682 31.323 8.70051 29.7657C8.43104 29.6295 8.20569 29.6161 7.92472 29.6919C5.38927 30.3689 2.85094 31.0344 0.313575 31.7009C0.230147 31.7229 0.143842 31.7316 0.000958945 31.7555L0 31.7546ZM3.79359 28.0041C3.87701 27.985 3.91729 27.9773 3.95661 27.9667C5.43338 27.5832 6.91303 27.2073 8.38597 26.8074C8.64872 26.7355 8.84147 26.7805 9.06299 26.9119C12.17 28.7598 15.4946 29.3006 19.0015 28.4318C25.9289 26.7153 30.1406 19.8627 28.5986 12.8653C27.1832 6.44034 20.9673 1.77987 13.92 2.82704C10.9368 3.27007 8.38693 4.61355 6.33575 6.83351C3.62673 9.765 2.48942 13.246 2.88163 17.2093C3.08493 19.2662 3.79071 21.1659 4.92514 22.8968C5.06323 23.1078 5.092 23.2938 5.02391 23.5355C4.61061 25.0046 4.21073 26.4785 3.79263 28.0032L3.79359 28.0041Z" fill="currentColor"/>
<path d="M7.83447 12.1941C7.8642 10.9053 8.36189 9.83992 9.26426 8.94522C9.57784 8.63357 9.94319 8.46575 10.3872 8.4763C10.6183 8.48205 10.8513 8.5089 11.0805 8.49068C11.4574 8.46096 11.7029 8.64507 11.8381 8.95961C12.307 10.0499 12.7711 11.1431 13.2026 12.2488C13.2698 12.4214 13.2199 12.7033 13.1163 12.8663C12.8219 13.3295 12.4854 13.7678 12.1382 14.1945C11.9186 14.4649 11.8966 14.7018 12.0759 15.001C13.357 17.1432 15.1292 18.7082 17.4594 19.626C17.8267 19.7708 18.0223 19.7305 18.2735 19.4255C18.6658 18.9499 19.0532 18.4695 19.4348 17.9852C19.7062 17.6409 19.8664 17.5518 20.2538 17.7292C21.3729 18.2412 22.4814 18.7773 23.5823 19.3268C23.706 19.3891 23.822 19.5981 23.8278 19.7429C23.8738 20.9292 23.5094 21.9102 22.4517 22.5862C21.1581 23.4138 19.8059 23.4761 18.3694 23.0714C14.6545 22.0262 11.8994 19.6988 9.6862 16.6302C8.96123 15.6252 8.29668 14.5915 8.01667 13.3631C7.92941 12.9795 7.89489 12.5835 7.83639 12.1932L7.83447 12.1941Z" fill="currentColor"/>
</svg>
