<svg width="50" height="50" viewBox="0 0 50 50" fill="none" xmlns="http://www.w3.org/2000/svg">
<path fill-rule="evenodd" clip-rule="evenodd" d="M12.436 12.4365C12.068 12.4366 11.7119 12.5672 11.4311 12.8052C11.1504 13.0431 10.9631 13.373 10.9027 13.736L9.34818 23.0633C9.31118 23.2859 9.3231 23.514 9.38311 23.7316C9.44312 23.9491 9.54979 24.151 9.69569 24.3232C9.8416 24.4954 10.0232 24.6338 10.228 24.7287C10.4328 24.8236 10.6558 24.8728 10.8815 24.8729H12.6607L10.1315 38.5814C10.0902 38.8056 10.0986 39.0361 10.1562 39.2566C10.2138 39.4771 10.3192 39.6823 10.4649 39.8576C10.6106 40.0328 10.7931 40.1739 10.9994 40.2708C11.2057 40.3677 11.4308 40.4181 11.6588 40.4183H20.986C21.3491 40.418 21.7005 40.2905 21.9795 40.0582C22.2584 39.8258 22.4473 39.5032 22.5132 39.1462L25.1487 24.8729H40.4178C43.8336 24.8729 46.636 22.0705 46.636 18.6547V13.9911C46.636 13.5788 46.4722 13.1834 46.1807 12.8919C45.8891 12.6004 45.4938 12.4366 45.0815 12.4365H12.436ZM13.7538 15.5456H43.5269V18.6547C43.5269 20.3902 42.1534 21.7638 40.4178 21.7638H23.8552C23.4922 21.7642 23.1407 21.8916 22.8618 22.1239C22.5828 22.3563 22.394 22.679 22.328 23.036L19.6926 37.3092H13.526L16.0552 23.6007C16.0966 23.3766 16.0882 23.146 16.0306 22.9255C15.9729 22.705 15.8675 22.4998 15.7218 22.3245C15.5761 22.1493 15.3936 22.0082 15.1873 21.9113C14.981 21.8144 14.7559 21.764 14.528 21.7638H12.7154L13.7538 15.5456Z" fill="white"/>
<path fill-rule="evenodd" clip-rule="evenodd" d="M3.56457 3.56457C3.27311 3.8561 3.10937 4.25145 3.10938 4.66368C3.10938 5.07592 3.27311 5.47127 3.56457 5.7628L43.9827 46.181C44.2743 46.4724 44.6696 46.6361 45.0819 46.6361C45.4941 46.6361 45.8894 46.4724 46.181 46.181C46.4724 45.8895 46.6362 45.4941 46.6362 45.0819C46.6362 44.6696 46.4724 44.2743 46.181 43.9827L5.76279 3.56457C5.47126 3.27311 5.07591 3.10938 4.66368 3.10938C4.25145 3.10938 3.85609 3.27311 3.56457 3.56457Z" fill="white"/>
</svg>
