<svg width="41" height="41" viewBox="0 0 41 41" fill="none" xmlns="http://www.w3.org/2000/svg">
<g clip-path="url(#clip0_1101_766)">
<path d="M40.0612 5.19776C39.9265 5.10519 36.6659 2.93262 28.6794 2.93262C20.6926 2.93262 17.4317 5.10519 17.2967 5.19776C16.971 5.4213 16.7762 5.79098 16.7762 6.18605V8.56668C14.9542 8.9277 12.5231 9.65065 9.50772 11.0653C2.27727 14.4577 0.248055 17.8096 0.165078 17.9505C-0.0349332 18.2914 -0.054439 18.7087 0.113372 19.0667L4.98393 29.4474C7.37787 34.5499 12.4735 37.6569 17.8967 37.6569C19.098 37.6569 20.3158 37.5046 21.5233 37.1875C21.527 37.1866 21.5307 37.1856 21.5344 37.1844H21.5347C21.6716 37.1469 21.801 37.0856 21.9162 37.0033C24.0392 35.4856 25.6359 33.4755 26.6421 31.2249C27.2313 31.4157 27.8388 31.5702 28.462 31.6847C28.498 31.6915 28.5339 31.6965 28.5704 31.6996H28.5707C28.6066 31.703 28.6429 31.7045 28.6791 31.7045C28.7518 31.7045 28.8243 31.698 28.8958 31.6847C35.6674 30.4388 40.5819 24.5376 40.5819 17.6526V6.18605C40.5819 5.79098 40.3872 5.4213 40.0612 5.19776ZM7.1534 28.4294L2.58844 18.6995C3.38415 17.7561 5.61585 15.5386 10.5254 13.2351C15.4359 10.9315 18.5671 10.6327 19.8009 10.6241L24.3658 20.354C26.7675 25.4732 25.2235 31.563 20.7009 34.9236C15.2257 36.2534 9.55509 33.5486 7.1534 28.4294ZM38.1852 17.6526C38.1852 23.3075 34.2008 28.1647 28.6791 29.2858C28.2546 29.1997 27.8391 29.0911 27.4338 28.962C28.0097 26.7306 28.0472 24.3598 27.4914 22.0572C28.9772 21.6451 30.6377 22.021 31.8034 23.1867C32.0375 23.4208 32.3443 23.5378 32.6508 23.5378C32.9573 23.5378 33.2642 23.4208 33.4982 23.1867C33.9661 22.7189 33.9661 21.9603 33.4982 21.4922C31.6703 19.6645 29.054 19.0939 26.7338 19.7806C26.67 19.632 26.6047 19.4837 26.5353 19.336L24.5922 15.194C25.56 15.1859 26.4691 14.806 27.1542 14.1206C27.6221 13.6527 27.6221 12.8939 27.1542 12.426C26.6864 11.9582 25.9275 11.9582 25.4597 12.426C25.2198 12.666 24.9009 12.7982 24.5615 12.7982C24.2225 12.7982 23.9036 12.666 23.6636 12.426C23.5156 12.2783 23.3388 12.1774 23.1515 12.1229L21.6651 8.95525C21.4973 8.59734 21.1641 8.34562 20.7743 8.28153C20.7161 8.27193 20.1767 8.1905 19.1727 8.2484V6.90281C20.2842 6.38978 23.2413 5.32904 28.6794 5.32904C34.1026 5.32904 37.0644 6.38885 38.1852 6.90498V17.6526Z" fill="white"/>
<path d="M33.3069 15.1946C34.2865 15.1946 35.2073 14.8135 35.8999 14.1209C36.3677 13.6528 36.3677 12.8942 35.8999 12.4261C35.4318 11.9582 34.6732 11.9582 34.2051 12.4261C33.9651 12.666 33.6462 12.7982 33.3072 12.7982C32.9678 12.7982 32.6489 12.666 32.409 12.4261C31.9412 11.9582 31.1823 11.9582 30.7142 12.4261C30.2463 12.8942 30.2463 13.6528 30.7142 14.1209C31.4068 14.8135 32.3276 15.1946 33.3069 15.1946Z" fill="white"/>
<path d="M13.2426 22.6171C13.4677 21.9947 13.1454 21.3077 12.5231 21.0829C11.6017 20.7501 10.6063 20.7959 9.71954 21.212C8.8328 21.6282 8.16124 22.3644 7.82841 23.2855C7.60363 23.9079 7.92594 24.5949 8.54826 24.8197C8.68264 24.8683 8.82011 24.8912 8.95541 24.8912C9.44584 24.8912 9.90624 24.5878 10.0824 24.0998C10.1976 23.7809 10.4304 23.5258 10.7376 23.3815C11.0447 23.2375 11.3896 23.2217 11.7085 23.3369C12.3308 23.5617 13.0179 23.2397 13.2426 22.6171Z" fill="white"/>
<path d="M16.4662 21.1051C16.6009 21.1534 16.7381 21.1766 16.8734 21.1766C17.3638 21.1766 17.8242 20.8732 18.0004 20.3852C18.1159 20.066 18.3484 19.8109 18.6555 19.6669C18.9627 19.5226 19.3076 19.5068 19.6265 19.6223C20.2491 19.8471 20.9358 19.5248 21.1609 18.9025C21.3857 18.2798 21.0634 17.5931 20.4411 17.3683C18.5394 16.6813 16.4334 17.6693 15.7464 19.5706C15.5216 20.1933 15.8439 20.88 16.4662 21.1051Z" fill="white"/>
<path d="M21.746 25.8046C21.9708 25.1823 21.6485 24.4956 21.0261 24.2705C20.4038 24.0454 19.7168 24.3677 19.492 24.9903C18.6638 27.2818 16.1255 28.4722 13.8344 27.6446C13.2118 27.4196 12.525 27.7419 12.3002 28.3642C12.0752 28.9868 12.3975 29.6736 13.0198 29.8986C13.7821 30.1739 14.5617 30.3046 15.3292 30.3046C18.1198 30.3046 20.7444 28.5766 21.746 25.8046Z" fill="white"/>
</g>
<defs>
<clipPath id="clip0_1101_766">
<rect width="40.5818" height="40.5818" fill="white"/>
</clipPath>
</defs>
</svg>
